<?xml version="1.0" encoding="utf-8"?>
<!-- Generator: Adobe Illustrator 23.0.1, SVG Export Plug-In . SVG Version: 6.00 Build 0)  -->
<svg version="1.1" id="Livello_1" xmlns="http://www.w3.org/2000/svg" xmlns:xlink="http://www.w3.org/1999/xlink" x="0px" y="0px"
	 viewBox="0 0 560 600" style="enable-background:new 0 0 560 600;" xml:space="preserve">
<style type="text/css">
	.st0{fill:#fff;}
	.st1{fill:rgb(7,110,158);}
</style>
<title>Lovely stars pattern on blue background by Shapes4FREE.com</title>
<description>Download more freebies at Shapes4FREE.com</description>
<g id="Pattern">
	<g>
		<path class="st0" d="M0.4,366.8l7.6,5.5l-2.9-9c-0.1-0.2,0-0.4,0.2-0.6l7.6-5.5H3.5c-0.2,0-0.4-0.1-0.5-0.4l-2.9-9L0,348.2v18.6
			C0.1,366.7,0.2,366.8,0.4,366.8z"/>
		<path class="st0" d="M0.3,246.8l7.6,5.6l-2.9-9c-0.1-0.2,0-0.4,0.2-0.6l7.6-5.6H3.4c-0.2,0-0.4-0.1-0.5-0.4L0,228l0,0.1v18.7
			C0.1,246.7,0.2,246.8,0.3,246.8z"/>
		<path class="st0" d="M0.3,486.8l7.6,5.5l-2.9-9c-0.1-0.2,0-0.4,0.2-0.6l7.6-5.5H3.4c-0.2,0-0.4-0.1-0.5-0.4L0,468l0,0.1v18.7
			C0.1,486.7,0.2,486.8,0.3,486.8z"/>
		<path class="st0" d="M0.3,126.8l7.6,5.6l-2.9-9c-0.1-0.2,0-0.4,0.2-0.6l7.6-5.6H3.4c-0.2,0-0.4-0.1-0.5-0.3L0,108l0,0.1v18.7
			c0,0,0,0,0,0C0.1,126.7,0.2,126.8,0.3,126.8z"/>
		<path class="st0" d="M7.9,12.4L5,3.4C4.9,3.2,5,3,5.2,2.8L9.1,0H0v6.7c0.1,0,0.2,0,0.3,0.1L7.9,12.4z"/>
		<path class="st0" d="M83.5,597.3c-0.2,0-0.4-0.1-0.5-0.3l-2.9-9l-2.9,9c-0.1,0.2-0.3,0.3-0.5,0.3h-9.4L71,600h18.2l3.8-2.7H83.5z"
			/>
		<path class="st0" d="M243.5,597.3c-0.2,0-0.4-0.1-0.5-0.3l-2.9-9l-2.9,9c-0.1,0.2-0.3,0.3-0.5,0.3h-9.4l3.8,2.7h18.2l3.8-2.7
			H243.5z"/>
		<path class="st0" d="M323.5,597.3c-0.2,0-0.4-0.1-0.5-0.3l-2.9-9l-2.9,9c-0.1,0.2-0.3,0.3-0.5,0.3h-9.4l3.8,2.7h18.2l3.8-2.7
			H323.5z"/>
		<path class="st0" d="M75,3.4l-2.9,9l7.6-5.5c0.1-0.1,0.2-0.1,0.3-0.1s0.2,0,0.3,0.1l7.6,5.5l-2.9-9c-0.1-0.2,0-0.4,0.2-0.6L89.1,0
			H70.9l3.9,2.8C75,3,75,3.2,75,3.4z"/>
		<path class="st0" d="M163.5,597.3c-0.2,0-0.4-0.1-0.5-0.3l-2.9-9l-2.9,9c-0.1,0.2-0.3,0.3-0.5,0.3h-9.4l3.8,2.7h18.2l3.8-2.7
			H163.5z"/>
		<path class="st0" d="M3.5,597.3c-0.2,0-0.4-0.1-0.5-0.3l-2.9-9L0,588.2V600h9.1l3.8-2.7H3.5z"/>
		<path class="st0" d="M556.7,357.3h-9.4l7.6,5.5c0.2,0.1,0.2,0.4,0.2,0.6l-2.9,9l7.6-5.5c0.1,0,0.2-0.1,0.2-0.1v-18.6l-2.8,8.8
			C557.1,357.1,556.9,357.3,556.7,357.3z"/>
		<path class="st0" d="M403.5,597.3c-0.2,0-0.4-0.1-0.5-0.3l-2.9-9l-2.9,9c-0.1,0.2-0.3,0.3-0.5,0.3h-9.4l3.8,2.7h18.2l3.8-2.7
			H403.5z"/>
		<path class="st0" d="M556.6,237.3h-9.4l7.6,5.6c0.2,0.1,0.2,0.4,0.2,0.6l-2.9,9l7.6-5.6c0.1-0.1,0.2-0.1,0.3-0.1V228l-2.9,8.9
			C557,237.1,556.8,237.3,556.6,237.3z"/>
		<path class="st0" d="M556.7,117.3h-9.4l7.6,5.6c0.2,0.1,0.2,0.3,0.2,0.6l-2.9,9l7.6-5.6c0.1-0.1,0.2-0.1,0.2-0.1v-18.7l-2.9,8.8
			C557.1,117.1,556.9,117.3,556.7,117.3z"/>
		<path class="st0" d="M556.6,477.3h-9.4l7.6,5.5c0.2,0.1,0.2,0.4,0.2,0.6l-2.9,9l7.6-5.5c0.1-0.1,0.2-0.1,0.3-0.1V468l-2.9,8.9
			C557,477.1,556.8,477.3,556.6,477.3z"/>
		<path class="st0" d="M556.7,597.3h-9.4l3.8,2.7h9v-11.9l-2.8,8.8C557.1,597.1,556.9,597.3,556.7,597.3z"/>
		<path class="st0" d="M155,3.4l-2.9,9l7.6-5.5c0.1-0.1,0.2-0.1,0.3-0.1s0.2,0,0.3,0.1l7.6,5.5l-2.9-9c-0.1-0.2,0-0.4,0.2-0.6
			l3.9-2.8h-18.2l3.9,2.8C155,3,155.1,3.2,155,3.4z"/>
		<path class="st0" d="M315,3.4l-2.9,9l7.6-5.5c0.1-0.1,0.2-0.1,0.3-0.1s0.2,0,0.3,0.1l7.6,5.5l-2.9-9c-0.1-0.2,0-0.4,0.2-0.6
			l3.9-2.8h-18.2l3.9,2.8C315,3,315,3.2,315,3.4z"/>
		<path class="st0" d="M235,3.4l-2.9,9l7.6-5.5c0.1-0.1,0.2-0.1,0.3-0.1s0.2,0,0.3,0.1l7.6,5.5l-2.9-9c-0.1-0.2,0-0.4,0.2-0.6
			l3.9-2.8h-18.2l3.9,2.8C235,3,235.1,3.2,235,3.4z"/>
		<path class="st0" d="M395,3.4l-2.9,9l7.6-5.5c0.1-0.1,0.2-0.1,0.3-0.1s0.2,0,0.3,0.1l7.6,5.5l-2.9-9c-0.1-0.2,0-0.4,0.2-0.6
			l3.9-2.8h-18.2l3.9,2.8C395,3,395,3.2,395,3.4z"/>
		<path class="st0" d="M555,3.4l-2.9,9l7.6-5.5c0.1-0.1,0.2-0.1,0.3-0.1V0h-9.1l3.9,2.8C555,3,555,3.2,555,3.4z"/>
		<path class="st0" d="M475,3.4l-2.9,9l7.6-5.5c0.1-0.1,0.2-0.1,0.3-0.1s0.2,0,0.3,0.1l7.6,5.5l-2.9-9c-0.1-0.2,0-0.4,0.2-0.6
			l3.9-2.8h-18.2l3.9,2.8C475,3,475,3.2,475,3.4z"/>
		<path class="st0" d="M42.9,176.9l-2.9-9l-2.9,9c-0.1,0.2-0.3,0.4-0.5,0.4h-9.4l7.6,5.6c0.2,0.1,0.2,0.4,0.2,0.6l-2.9,9l7.6-5.6
			c0.2-0.1,0.4-0.1,0.6,0l7.6,5.6l-2.9-9c-0.1-0.2,0-0.4,0.2-0.6l7.6-5.6h-9.4C43.1,177.3,42.9,177.1,42.9,176.9z"/>
		<path class="st0" d="M274.9,63.4l-2.9,9l7.6-5.6c0.2-0.1,0.4-0.1,0.6,0l7.6,5.6l-2.9-9c-0.1-0.2,0-0.4,0.2-0.6l7.6-5.5h-9.4
			c-0.2,0-0.4-0.1-0.5-0.3l-2.9-9l-2.9,9c-0.1,0.2-0.3,0.3-0.5,0.3h-9.4l7.6,5.5C274.9,63,275,63.2,274.9,63.4z"/>
		<path class="st0" d="M202.9,176.9l-2.9-9l-2.9,9c-0.1,0.2-0.3,0.4-0.5,0.4h-9.4l7.6,5.6c0.2,0.1,0.2,0.4,0.2,0.6l-2.9,9l7.6-5.6
			c0.2-0.1,0.4-0.1,0.6,0l7.6,5.6l-2.9-9c-0.1-0.2,0-0.4,0.2-0.6l7.6-5.6h-9.4C203.1,177.3,202.9,177.1,202.9,176.9z"/>
		<path class="st0" d="M483,356.9l-2.9-9l-2.9,9c-0.1,0.2-0.3,0.4-0.5,0.4h-9.4l7.6,5.5c0.2,0.1,0.2,0.4,0.2,0.6l-2.9,9l7.6-5.5
			c0.1-0.1,0.2-0.1,0.3-0.1s0.2,0,0.3,0.1l7.6,5.5l-2.9-9c-0.1-0.2,0-0.4,0.2-0.6l7.6-5.5h-9.4C483.2,357.3,483,357.1,483,356.9z"/>
		<path class="st0" d="M235,123.4l-2.9,9l7.6-5.6c0.1-0.1,0.2-0.1,0.3-0.1s0.2,0,0.3,0.1l7.6,5.6l-2.9-9c-0.1-0.2,0-0.4,0.2-0.6
			l7.6-5.6h-9.4c-0.2,0-0.4-0.1-0.5-0.3l-2.9-9l-2.9,9c-0.1,0.2-0.3,0.3-0.5,0.3h-9.4l7.6,5.6C235,123,235.1,123.2,235,123.4z"/>
		<path class="st0" d="M235,243.4l-2.9,9l7.6-5.6c0.2-0.1,0.4-0.1,0.6,0l7.6,5.6l-2.9-9c-0.1-0.2,0-0.4,0.2-0.6l7.6-5.6h-9.4
			c-0.2,0-0.4-0.1-0.5-0.4l-2.9-9l-2.9,9c-0.1,0.2-0.3,0.4-0.5,0.4h-9.4l7.6,5.6C235,243,235.1,243.2,235,243.4z"/>
		<path class="st0" d="M155,123.4l-2.9,9l7.6-5.6c0.1-0.1,0.2-0.1,0.3-0.1s0.2,0,0.3,0.1l7.6,5.6l-2.9-9c-0.1-0.2,0-0.4,0.2-0.6
			l7.6-5.6h-9.4c-0.2,0-0.4-0.1-0.5-0.3l-2.9-9l-2.9,9c-0.1,0.2-0.3,0.3-0.5,0.3h-9.4l7.6,5.6C155,123,155.1,123.2,155,123.4z"/>
		<path class="st0" d="M155,243.4l-2.9,9l7.6-5.6c0.2-0.1,0.4-0.1,0.6,0l7.6,5.6l-2.9-9c-0.1-0.2,0-0.4,0.2-0.6l7.6-5.6h-9.4
			c-0.2,0-0.4-0.1-0.5-0.4l-2.9-9l-2.9,9c-0.1,0.2-0.3,0.4-0.5,0.4h-9.4l7.6,5.6C155,243,155.1,243.2,155,243.4z"/>
		<path class="st0" d="M194.9,63.4l-2.9,9l7.6-5.6c0.2-0.1,0.4-0.1,0.6,0l7.6,5.6l-2.9-9c-0.1-0.2,0-0.4,0.2-0.6l7.6-5.5h-9.4
			c-0.2,0-0.4-0.1-0.5-0.3l-2.9-9l-2.9,9c-0.1,0.2-0.3,0.3-0.5,0.3h-9.4l7.6,5.5C194.9,63,195,63.2,194.9,63.4z"/>
		<path class="st0" d="M482.9,476.9l-2.9-9l-2.9,9c-0.1,0.2-0.3,0.4-0.5,0.4h-9.4l7.6,5.5c0.2,0.1,0.2,0.4,0.2,0.6l-2.9,9l7.6-5.5
			c0.2-0.1,0.4-0.1,0.6,0l7.6,5.5l-2.9-9c-0.1-0.2,0-0.4,0.2-0.6l7.6-5.5h-9.4C483.2,477.3,483,477.1,482.9,476.9z"/>
		<path class="st0" d="M354.9,63.4l-2.9,9l7.6-5.6c0.2-0.1,0.4-0.1,0.6,0l7.6,5.6l-2.9-9c-0.1-0.2,0-0.4,0.2-0.6l7.6-5.5h-9.4
			c-0.2,0-0.4-0.1-0.5-0.3l-2.9-9l-2.9,9c-0.1,0.2-0.3,0.3-0.5,0.3h-9.4l7.6,5.5C354.9,63,355,63.2,354.9,63.4z"/>
		<path class="st0" d="M315,123.4l-2.9,9l7.6-5.6c0.1-0.1,0.2-0.1,0.3-0.1s0.2,0,0.3,0.1l7.6,5.6l-2.9-9c-0.1-0.2,0-0.4,0.2-0.6
			l7.6-5.6h-9.4c-0.2,0-0.4-0.1-0.5-0.3l-2.9-9l-2.9,9c-0.1,0.2-0.3,0.3-0.5,0.3h-9.4l7.6,5.6C315,123,315.1,123.2,315,123.4z"/>
		<path class="st0" d="M403,356.9l-2.9-9l-2.9,9c-0.1,0.2-0.3,0.4-0.5,0.4h-9.4l7.6,5.5c0.2,0.1,0.2,0.4,0.2,0.6l-2.9,9l7.6-5.5
			c0.1-0.1,0.2-0.1,0.3-0.1s0.2,0,0.3,0.1l7.6,5.5l-2.9-9c-0.1-0.2,0-0.4,0.2-0.6l7.6-5.5h-9.4C403.2,357.3,403,357.1,403,356.9z"/>
		<path class="st0" d="M315,243.4l-2.9,9l7.6-5.6c0.2-0.1,0.4-0.1,0.6,0l7.6,5.6l-2.9-9c-0.1-0.2,0-0.4,0.2-0.6l7.6-5.6h-9.4
			c-0.2,0-0.4-0.1-0.5-0.4l-2.9-9l-2.9,9c-0.1,0.2-0.3,0.4-0.5,0.4h-9.4l7.6,5.6C315,243,315.1,243.2,315,243.4z"/>
		<path class="st0" d="M243,356.9l-2.9-9l-2.9,9c-0.1,0.2-0.3,0.4-0.5,0.4h-9.4l7.6,5.5c0.2,0.1,0.2,0.4,0.2,0.6l-2.9,9l7.6-5.5
			c0.2-0.1,0.4-0.1,0.6,0l7.6,5.5l-2.9-9c-0.1-0.2,0-0.4,0.2-0.6l7.6-5.5h-9.4C243.2,357.3,243.1,357.1,243,356.9z"/>
		<path class="st0" d="M122.8,296.9l-2.9-9l-2.9,9c-0.1,0.2-0.3,0.4-0.5,0.4h-9.4l7.6,5.5c0.2,0.1,0.2,0.4,0.2,0.6l-2.9,9l7.6-5.5
			c0.1-0.1,0.2-0.1,0.3-0.1s0.2,0,0.3,0.1l7.6,5.5l-2.9-9c-0.1-0.2,0-0.4,0.2-0.6l7.6-5.5h-9.4C123.1,297.3,122.9,297.1,122.8,296.9
			z"/>
		<path class="st0" d="M282.9,176.9l-2.9-9l-2.9,9c-0.1,0.2-0.3,0.4-0.5,0.4h-9.4l7.6,5.6c0.2,0.1,0.2,0.4,0.2,0.6l-2.9,9l7.6-5.6
			c0.2-0.1,0.4-0.1,0.6,0l7.6,5.6l-2.9-9c-0.1-0.2,0-0.4,0.2-0.6l7.6-5.6h-9.4C283.1,177.3,282.9,177.1,282.9,176.9z"/>
		<path class="st0" d="M242.9,476.9l-2.9-9l-2.9,9c-0.1,0.2-0.3,0.4-0.5,0.4h-9.4l7.6,5.5c0.2,0.1,0.2,0.4,0.2,0.6l-2.9,9l7.6-5.5
			c0.2-0.1,0.4-0.1,0.6,0l7.6,5.5l-2.9-9c-0.1-0.2,0-0.4,0.2-0.6l7.6-5.5h-9.4C243.2,477.3,243,477.1,242.9,476.9z"/>
		<path class="st0" d="M282.9,296.9l-2.9-9l-2.9,9c-0.1,0.2-0.3,0.4-0.5,0.4h-9.4l7.6,5.5c0.2,0.1,0.2,0.4,0.2,0.6l-2.9,9l7.6-5.5
			c0.1-0.1,0.2-0.1,0.3-0.1s0.2,0,0.3,0.1l7.6,5.5l-2.9-9c-0.1-0.2,0-0.4,0.2-0.6l7.6-5.5h-9.4C283.1,297.3,282.9,297.1,282.9,296.9
			z"/>
		<path class="st0" d="M34.9,63.4l-2.9,9l7.6-5.6c0.2-0.1,0.4-0.1,0.6,0l7.6,5.6l-2.9-9c-0.1-0.2,0-0.4,0.2-0.6l7.6-5.5h-9.4
			c-0.2,0-0.4-0.1-0.5-0.3l-2.9-9l-2.9,9c-0.1,0.2-0.3,0.3-0.5,0.3h-9.4l7.6,5.5C34.9,63,35,63.2,34.9,63.4z"/>
		<path class="st0" d="M122.8,536.9l-2.9-9l-2.9,9c-0.1,0.2-0.3,0.3-0.5,0.3h-9.4l7.6,5.5c0.2,0.1,0.2,0.3,0.2,0.6l-2.9,9l7.6-5.5
			c0.1-0.1,0.2-0.1,0.3-0.1s0.2,0,0.3,0.1l7.6,5.5l-2.9-9c-0.1-0.2,0-0.4,0.2-0.6l7.6-5.5h-9.4C123.1,537.3,122.9,537.1,122.8,536.9
			z"/>
		<path class="st0" d="M42.9,416.9l-2.9-9l-2.9,9c-0.1,0.2-0.3,0.4-0.5,0.4h-9.4l7.6,5.5c0.2,0.1,0.2,0.4,0.2,0.6l-2.9,9l7.6-5.5
			c0.1-0.1,0.2-0.1,0.3-0.1s0.2,0,0.3,0.1l7.6,5.5l-2.9-9c-0.1-0.2,0-0.4,0.2-0.6l7.6-5.5h-9.4C43.2,417.3,43,417.1,42.9,416.9z"/>
		<path class="st0" d="M83,356.9l-2.9-9l-2.9,9c-0.1,0.2-0.3,0.4-0.5,0.4h-9.4l7.6,5.5c0.2,0.1,0.2,0.4,0.2,0.6l-2.9,9l7.6-5.5
			c0.2-0.1,0.4-0.1,0.6,0l7.6,5.5l-2.9-9c-0.1-0.2,0-0.4,0.2-0.6l7.6-5.5h-9.4C83.2,357.3,83,357.1,83,356.9z"/>
		<path class="st0" d="M82.9,476.9l-2.9-9l-2.9,9c-0.1,0.2-0.3,0.4-0.5,0.4h-9.4l7.6,5.5c0.2,0.1,0.2,0.4,0.2,0.6l-2.9,9l7.6-5.5
			c0.2-0.1,0.4-0.1,0.6,0l7.6,5.5l-2.9-9c-0.1-0.2,0-0.4,0.2-0.6l7.6-5.5h-9.4C83.2,477.3,83,477.1,82.9,476.9z"/>
		<path class="st0" d="M202.9,416.9l-2.9-9l-2.9,9c-0.1,0.2-0.3,0.4-0.5,0.4h-9.4l7.6,5.5c0.2,0.1,0.2,0.4,0.2,0.6l-2.9,9l7.6-5.5
			c0.1-0.1,0.2-0.1,0.3-0.1s0.2,0,0.3,0.1l7.6,5.5l-2.9-9c-0.1-0.2,0-0.4,0.2-0.6l7.6-5.5h-9.4C203.2,417.3,203,417.1,202.9,416.9z"
			/>
		<path class="st0" d="M162.9,476.9l-2.9-9l-2.9,9c-0.1,0.2-0.3,0.4-0.5,0.4h-9.4l7.6,5.5c0.2,0.1,0.2,0.4,0.2,0.6l-2.9,9l7.6-5.5
			c0.2-0.1,0.4-0.1,0.6,0l7.6,5.5l-2.9-9c-0.1-0.2,0-0.4,0.2-0.6l7.6-5.5h-9.4C163.2,477.3,163,477.1,162.9,476.9z"/>
		<path class="st0" d="M163,356.9l-2.9-9l-2.9,9c-0.1,0.2-0.3,0.4-0.5,0.4h-9.4l7.6,5.5c0.2,0.1,0.2,0.4,0.2,0.6l-2.9,9l7.6-5.5
			c0.2-0.1,0.4-0.1,0.6,0l7.6,5.5l-2.9-9c-0.1-0.2,0-0.4,0.2-0.6l7.6-5.5h-9.4C163.2,357.3,163.1,357.1,163,356.9z"/>
		<path class="st0" d="M202.9,536.9l-2.9-9l-2.9,9c-0.1,0.2-0.3,0.3-0.5,0.3h-9.4l7.6,5.5c0.2,0.1,0.2,0.3,0.2,0.6l-2.9,9l7.6-5.5
			c0.1-0.1,0.2-0.1,0.3-0.1s0.2,0,0.3,0.1l7.6,5.5l-2.9-9c-0.1-0.2,0-0.4,0.2-0.6l7.6-5.5h-9.4C203.1,537.3,202.9,537.1,202.9,536.9
			z"/>
		<path class="st0" d="M122.9,416.9l-2.9-9l-2.9,9c-0.1,0.2-0.3,0.4-0.5,0.4h-9.4l7.6,5.5c0.2,0.1,0.2,0.4,0.2,0.6l-2.9,9l7.6-5.5
			c0.1-0.1,0.2-0.1,0.3-0.1s0.2,0,0.3,0.1l7.6,5.5l-2.9-9c-0.1-0.2,0-0.4,0.2-0.6l7.6-5.5h-9.4C123.2,417.3,123,417.1,122.9,416.9z"
			/>
		<path class="st0" d="M362.9,176.9l-2.9-9l-2.9,9c-0.1,0.2-0.3,0.4-0.5,0.4h-9.4l7.6,5.6c0.2,0.1,0.2,0.4,0.2,0.6l-2.9,9l7.6-5.6
			c0.1-0.1,0.2-0.1,0.3-0.1s0.2,0,0.3,0.1l7.6,5.6l-2.9-9c-0.1-0.2,0-0.4,0.2-0.6l7.6-5.6h-9.4C363.1,177.3,362.9,177.1,362.9,176.9
			z"/>
		<path class="st0" d="M75,243.4l-2.9,9l7.6-5.6c0.2-0.1,0.4-0.1,0.6,0l7.6,5.6l-2.9-9c-0.1-0.2,0-0.4,0.2-0.6l7.6-5.6h-9.4
			c-0.2,0-0.4-0.1-0.5-0.4l-2.9-9l-2.9,9c-0.1,0.2-0.3,0.4-0.5,0.4h-9.4l7.6,5.6C75,243,75.1,243.2,75,243.4z"/>
		<path class="st0" d="M42.8,536.9l-2.9-9l-2.9,9c-0.1,0.2-0.3,0.3-0.5,0.3h-9.4l7.6,5.5c0.2,0.1,0.2,0.3,0.2,0.6l-2.9,9l7.6-5.5
			c0.1-0.1,0.2-0.1,0.3-0.1s0.2,0,0.3,0.1l7.6,5.5l-2.9-9c-0.1-0.2,0-0.4,0.2-0.6l7.6-5.5h-9.4C43.1,537.3,42.9,537.1,42.8,536.9z"
			/>
		<path class="st0" d="M114.9,63.4l-2.9,9l7.6-5.6c0.2-0.1,0.4-0.1,0.6,0l7.6,5.6l-2.9-9c-0.1-0.2,0-0.4,0.2-0.6l7.6-5.5h-9.4
			c-0.2,0-0.4-0.1-0.5-0.3l-2.9-9l-2.9,9c-0.1,0.2-0.3,0.3-0.5,0.3h-9.4l7.6,5.5C114.9,63,115,63.2,114.9,63.4z"/>
		<path class="st0" d="M442.9,416.9l-2.9-9l-2.9,9c-0.1,0.2-0.3,0.4-0.5,0.4h-9.4l7.6,5.5c0.2,0.1,0.2,0.4,0.2,0.6l-2.9,9l7.6-5.5
			c0.1-0.1,0.2-0.1,0.3-0.1s0.2,0,0.3,0.1l7.6,5.5l-2.9-9c-0.1-0.2,0-0.4,0.2-0.6l7.6-5.5h-9.4C443.2,417.3,443,417.1,442.9,416.9z"
			/>
		<path class="st0" d="M75,123.4l-2.9,9l7.6-5.6c0.1-0.1,0.2-0.1,0.3-0.1s0.2,0,0.3,0.1l7.6,5.6l-2.9-9c-0.1-0.2,0-0.4,0.2-0.6
			l7.6-5.6h-9.4c-0.2,0-0.4-0.1-0.5-0.3l-2.9-9l-2.9,9c-0.1,0.2-0.3,0.3-0.5,0.3h-9.4l7.6,5.6C75,123,75.1,123.2,75,123.4z"/>
		<path class="st0" d="M42.8,296.9l-2.9-9l-2.9,9c-0.1,0.2-0.3,0.4-0.5,0.4h-9.4l7.6,5.5c0.2,0.1,0.2,0.4,0.2,0.6l-2.9,9l7.6-5.5
			c0.1-0.1,0.2-0.1,0.3-0.1s0.2,0,0.3,0.1l7.6,5.5l-2.9-9c-0.1-0.2,0-0.4,0.2-0.6l7.6-5.5h-9.4C43.1,297.3,42.9,297.1,42.8,296.9z"
			/>
		<path class="st0" d="M122.9,176.9l-2.9-9l-2.9,9c-0.1,0.2-0.3,0.4-0.5,0.4h-9.4l7.6,5.6c0.2,0.1,0.2,0.4,0.2,0.6l-2.9,9l7.6-5.6
			c0.2-0.1,0.4-0.1,0.6,0l7.6,5.6l-2.9-9c-0.1-0.2,0-0.4,0.2-0.6l7.6-5.6h-9.4C123.1,177.3,122.9,177.1,122.9,176.9z"/>
		<path class="st0" d="M442.9,536.9l-2.9-9l-2.9,9c-0.1,0.2-0.3,0.3-0.5,0.3h-9.4l7.6,5.5c0.2,0.1,0.2,0.3,0.2,0.6l-2.9,9l7.6-5.5
			c0.2-0.1,0.4-0.1,0.6,0l7.6,5.5l-2.9-9c-0.1-0.2,0-0.4,0.2-0.6l7.6-5.5h-9.4C443.1,537.3,442.9,537.1,442.9,536.9z"/>
		<path class="st0" d="M202.9,296.9l-2.9-9l-2.9,9c-0.1,0.2-0.3,0.4-0.5,0.4h-9.4l7.6,5.5c0.2,0.1,0.2,0.4,0.2,0.6l-2.9,9l7.6-5.5
			c0.1-0.1,0.2-0.1,0.3-0.1s0.2,0,0.3,0.1l7.6,5.5l-2.9-9c-0.1-0.2,0-0.4,0.2-0.6l7.6-5.5h-9.4C203.1,297.3,202.9,297.1,202.9,296.9
			z"/>
		<path class="st0" d="M395,243.4l-2.9,9l7.6-5.6c0.2-0.1,0.4-0.1,0.6,0l7.6,5.6l-2.9-9c-0.1-0.2,0-0.4,0.2-0.6l7.6-5.6h-9.4
			c-0.2,0-0.4-0.1-0.5-0.4l-2.9-9l-2.9,9c-0.1,0.2-0.3,0.4-0.5,0.4h-9.4l7.6,5.6C395,243,395.1,243.2,395,243.4z"/>
		<path class="st0" d="M442.9,176.9l-2.9-9l-2.9,9c-0.1,0.2-0.3,0.4-0.5,0.4h-9.4l7.6,5.6c0.2,0.1,0.2,0.4,0.2,0.6l-2.9,9l7.6-5.6
			c0.1-0.1,0.2-0.1,0.3-0.1s0.2,0,0.3,0.1l7.6,5.6l-2.9-9c-0.1-0.2,0-0.4,0.2-0.6l7.6-5.6h-9.4C443.1,177.3,442.9,177.1,442.9,176.9
			z"/>
		<path class="st0" d="M475,243.4l-2.9,9l7.6-5.6c0.2-0.1,0.4-0.1,0.6,0l7.6,5.6l-2.9-9c-0.1-0.2,0-0.4,0.2-0.6l7.6-5.6h-9.4
			c-0.2,0-0.4-0.1-0.5-0.4l-2.9-9l-2.9,9c-0.1,0.2-0.3,0.4-0.5,0.4h-9.4l7.6,5.6C475,243,475.1,243.2,475,243.4z"/>
		<path class="st0" d="M395,123.4l-2.9,9l7.6-5.6c0.2-0.1,0.4-0.1,0.6,0l7.6,5.6l-2.9-9c-0.1-0.2,0-0.4,0.2-0.6l7.6-5.6h-9.4
			c-0.2,0-0.4-0.1-0.5-0.3l-2.9-9l-2.9,9c-0.1,0.2-0.3,0.3-0.5,0.3h-9.4l7.6,5.6C395,123,395.1,123.2,395,123.4z"/>
		<path class="st0" d="M362.9,416.9l-2.9-9l-2.9,9c-0.1,0.2-0.3,0.4-0.5,0.4h-9.4l7.6,5.5c0.2,0.1,0.2,0.4,0.2,0.6l-2.9,9l7.6-5.5
			c0.1-0.1,0.2-0.1,0.3-0.1s0.2,0,0.3,0.1l7.6,5.5l-2.9-9c-0.1-0.2,0-0.4,0.2-0.6l7.6-5.5h-9.4C363.2,417.3,363,417.1,362.9,416.9z"
			/>
		<path class="st0" d="M475,123.4l-2.9,9l7.6-5.6c0.2-0.1,0.4-0.1,0.6,0l7.6,5.6l-2.9-9c-0.1-0.2,0-0.4,0.2-0.6l7.6-5.6h-9.4
			c-0.2,0-0.4-0.1-0.5-0.3l-2.9-9l-2.9,9c-0.1,0.2-0.3,0.3-0.5,0.3h-9.4l7.6,5.6C475,123,475.1,123.2,475,123.4z"/>
		<path class="st0" d="M522.8,296.9l-2.9-9l-2.9,9c-0.1,0.2-0.3,0.4-0.5,0.4h-9.4l7.6,5.5c0.2,0.1,0.2,0.4,0.2,0.6l-2.9,9l7.6-5.5
			c0.2-0.1,0.4-0.1,0.6,0l7.6,5.5l-2.9-9c-0.1-0.2,0-0.4,0.2-0.6l7.6-5.5h-9.4C523.1,297.3,522.9,297.1,522.8,296.9z"/>
		<path class="st0" d="M522.8,536.9l-2.9-9l-2.9,9c-0.1,0.2-0.3,0.3-0.5,0.3h-9.4l7.6,5.5c0.2,0.1,0.2,0.3,0.2,0.6l-2.9,9l7.6-5.5
			c0.2-0.1,0.4-0.1,0.6,0l7.6,5.5l-2.9-9c-0.1-0.2,0-0.4,0.2-0.6l7.6-5.5h-9.4C523.1,537.3,522.9,537.1,522.8,536.9z"/>
		<path class="st0" d="M442.9,296.9l-2.9-9l-2.9,9c-0.1,0.2-0.3,0.4-0.5,0.4h-9.4l7.6,5.5c0.2,0.1,0.2,0.4,0.2,0.6l-2.9,9l7.6-5.5
			c0.2-0.1,0.4-0.1,0.6,0l7.6,5.5l-2.9-9c-0.1-0.2,0-0.4,0.2-0.6l7.6-5.5h-9.4C443.1,297.3,442.9,297.1,442.9,296.9z"/>
		<path class="st0" d="M514.9,63.4l-2.9,9l7.6-5.6c0.1-0.1,0.2-0.1,0.3-0.1s0.2,0,0.3,0.1l7.6,5.6l-2.9-9c-0.1-0.2,0-0.4,0.2-0.6
			l7.6-5.5h-9.4c-0.2,0-0.4-0.1-0.5-0.3l-2.9-9l-2.9,9c-0.1,0.2-0.3,0.3-0.5,0.3h-9.4l7.6,5.5C514.9,63,515,63.2,514.9,63.4z"/>
		<path class="st0" d="M322.9,476.9l-2.9-9l-2.9,9c-0.1,0.2-0.3,0.4-0.5,0.4h-9.4l7.6,5.5c0.2,0.1,0.2,0.4,0.2,0.6l-2.9,9l7.6-5.5
			c0.2-0.1,0.4-0.1,0.6,0l7.6,5.5l-2.9-9c-0.1-0.2,0-0.4,0.2-0.6l7.6-5.5h-9.4C323.2,477.3,323,477.1,322.9,476.9z"/>
		<path class="st0" d="M522.9,176.9l-2.9-9l-2.9,9c-0.1,0.2-0.3,0.4-0.5,0.4h-9.4l7.6,5.6c0.2,0.1,0.2,0.4,0.2,0.6l-2.9,9l7.6-5.6
			c0.1-0.1,0.2-0.1,0.3-0.1s0.2,0,0.3,0.1l7.6,5.6l-2.9-9c-0.1-0.2,0-0.4,0.2-0.6l7.6-5.6h-9.4C523.1,177.3,522.9,177.1,522.9,176.9
			z"/>
		<path class="st0" d="M282.9,416.9l-2.9-9l-2.9,9c-0.1,0.2-0.3,0.4-0.5,0.4h-9.4l7.6,5.5c0.2,0.1,0.2,0.4,0.2,0.6l-2.9,9l7.6-5.5
			c0.1-0.1,0.2-0.1,0.3-0.1s0.2,0,0.3,0.1l7.6,5.5l-2.9-9c-0.1-0.2,0-0.4,0.2-0.6l7.6-5.5h-9.4C283.2,417.3,283,417.1,282.9,416.9z"
			/>
		<path class="st0" d="M362.9,536.9l-2.9-9l-2.9,9c-0.1,0.2-0.3,0.3-0.5,0.3h-9.4l7.6,5.5c0.2,0.1,0.2,0.3,0.2,0.6l-2.9,9l7.6-5.5
			c0.2-0.1,0.4-0.1,0.6,0l7.6,5.5l-2.9-9c-0.1-0.2,0-0.4,0.2-0.6l7.6-5.5h-9.4C363.1,537.3,362.9,537.1,362.9,536.9z"/>
		<path class="st0" d="M282.9,536.9l-2.9-9l-2.9,9c-0.1,0.2-0.3,0.3-0.5,0.3h-9.4l7.6,5.5c0.2,0.1,0.2,0.3,0.2,0.6l-2.9,9l7.6-5.5
			c0.1-0.1,0.2-0.1,0.3-0.1s0.2,0,0.3,0.1l7.6,5.5l-2.9-9c-0.1-0.2,0-0.4,0.2-0.6l7.6-5.5h-9.4C283.1,537.3,282.9,537.1,282.9,536.9
			z"/>
		<path class="st0" d="M545.4,597.2c-0.2-0.1-0.2-0.3-0.2-0.6s0.3-0.3,0.5-0.3h10.6l3.3-10.1c0.1-0.2,0.2-0.3,0.4-0.3v-98l-8.6,6.2
			c-0.1,0.1-0.2,0.1-0.3,0.1s-0.2,0-0.3-0.1c-0.2-0.1-0.2-0.4-0.2-0.6l3.3-10.1l-8.6-6.2c-0.2-0.1-0.2-0.4-0.2-0.6s0.3-0.4,0.5-0.4
			h10.6l3.3-10.1c0.1-0.2,0.3-0.3,0.5-0.3v-98l-8.5,6.2c-0.2,0.1-0.4,0.1-0.6,0c-0.2-0.1-0.2-0.4-0.2-0.6l3.3-10.1l-8.6-6.2
			c-0.2-0.1-0.2-0.4-0.2-0.6s0.3-0.4,0.5-0.4h10.6l3.3-10.1c0.1-0.2,0.2-0.3,0.4-0.3v-98l-8.6,6.2c-0.1,0.1-0.2,0.1-0.3,0.1
			s-0.2,0-0.3-0.1c-0.2-0.1-0.2-0.4-0.2-0.6l3.3-10.1l-8.6-6.2c-0.2-0.1-0.2-0.4-0.2-0.6c0.1-0.2,0.3-0.4,0.5-0.4h10.6l3.3-10.1
			c0.1-0.2,0.3-0.3,0.5-0.3v-98l-8.5,6.2c-0.2,0.1-0.4,0.1-0.6,0c-0.2-0.1-0.2-0.4-0.2-0.6l3.3-10.1l-8.6-6.2
			c-0.2-0.1-0.2-0.3-0.2-0.6s0.3-0.3,0.5-0.3h10.6l3.3-10.1c0.1-0.2,0.2-0.3,0.4-0.3v-98l-8.6,6.2c-0.2,0.1-0.4,0.1-0.6,0
			c-0.2-0.1-0.2-0.4-0.2-0.6L554,3.4L549.2,0h-58.4l-4.7,3.4l3.3,10.1c0.1,0.2,0,0.4-0.2,0.6c-0.1,0.1-0.2,0.1-0.3,0.1
			s-0.2,0-0.3-0.1L480,7.8l-8.6,6.2c-0.2,0.1-0.4,0.1-0.6,0c-0.2-0.1-0.2-0.4-0.2-0.6l3.3-10.1L469.2,0h-58.4l-4.7,3.4l3.3,10.1
			c0.1,0.2,0,0.4-0.2,0.6c-0.1,0.1-0.2,0.1-0.3,0.1s-0.2,0-0.3-0.1L400,7.8l-8.6,6.2c-0.2,0.1-0.4,0.1-0.6,0
			c-0.2-0.1-0.2-0.4-0.2-0.6l3.3-10.1L389.2,0h-58.4l-4.7,3.4l3.3,10.1c0.1,0.2,0,0.4-0.2,0.6c-0.1,0.1-0.2,0.1-0.3,0.1
			s-0.2,0-0.3-0.1L320,7.8l-8.6,6.2c-0.2,0.1-0.4,0.1-0.6,0c-0.2-0.1-0.2-0.4-0.2-0.6l3.3-10.1L309.2,0h-58.4l-4.7,3.4l3.3,10.1
			c0.1,0.2,0,0.4-0.2,0.6c-0.1,0.1-0.2,0.1-0.3,0.1s-0.2,0-0.3-0.1L240,7.8l-8.6,6.2c-0.2,0.1-0.4,0.1-0.6,0
			c-0.2-0.1-0.2-0.4-0.2-0.6l3.3-10.1L229.2,0h-58.4l-4.7,3.4l3.3,10.1c0.1,0.2,0,0.4-0.2,0.6c-0.1,0.1-0.2,0.1-0.3,0.1
			s-0.2,0-0.3-0.1L160,7.8l-8.6,6.2c-0.2,0.1-0.4,0.1-0.6,0c-0.2-0.1-0.2-0.4-0.2-0.6l3.3-10.1L149.2,0H90.8l-4.7,3.4l3.3,10.1
			c0.1,0.2,0,0.4-0.2,0.6c-0.1,0.1-0.2,0.1-0.3,0.1s-0.2,0-0.3-0.1L80,7.8l-8.6,6.2c-0.2,0.1-0.4,0.1-0.6,0
			c-0.2-0.1-0.2-0.4-0.2-0.6l3.3-10.1L69.2,0H10.8L6.1,3.4l3.3,10.1c0.1,0.2,0,0.4-0.2,0.6c-0.1,0.1-0.2,0.1-0.3,0.1s-0.2,0-0.3-0.1
			L0,7.8v98c0.2,0,0.4,0.1,0.5,0.3l3.3,10.1h10.6c0.2,0,0.4,0.1,0.5,0.3s0,0.4-0.2,0.6l-8.6,6.2l3.3,10.1c0.1,0.2,0,0.4-0.2,0.6
			c-0.1,0.1-0.2,0.1-0.3,0.1s-0.2,0-0.3-0.1l-8.6-6.2l-0.1,0v98c0.2,0,0.4,0.1,0.5,0.3l3.3,10.1h10.6c0.2,0,0.4,0.1,0.5,0.4
			s0,0.4-0.2,0.6l-8.6,6.2l3.3,10.1c0.1,0.2,0,0.4-0.2,0.6c-0.2,0.1-0.4,0.1-0.6,0L0,247.9l0,0v98c0.2,0,0.5,0.1,0.5,0.3l3.3,10.1
			h10.6c0.2,0,0.4,0.1,0.5,0.4s0,0.4-0.2,0.6l-8.6,6.2l3.3,10.1c0.1,0.2,0,0.4-0.2,0.6c-0.1,0.1-0.2,0.1-0.3,0.1s-0.2,0-0.3-0.1
			l-8.6-6.2l-0.1,0v98c0.2,0,0.4,0.1,0.5,0.3l3.3,10.1h10.6c0.2,0,0.4,0.1,0.5,0.4s0,0.4-0.2,0.6l-8.6,6.2l3.3,10.1
			c0.1,0.2,0,0.4-0.2,0.6c-0.1,0.1-0.2,0.1-0.3,0.1s-0.2,0-0.3-0.1L0,487.9l0,0v98c0.2,0,0.5,0.1,0.5,0.3l3.3,10.1h10.6
			c0.2,0,0.4,0.1,0.5,0.3s0,0.4-0.2,0.6l-3.9,2.8h58.4l-3.9-2.8c-0.2-0.1-0.2-0.3-0.2-0.6s0.3-0.3,0.5-0.3h10.6l3.3-10.1
			c0.1-0.4,0.8-0.4,0.9,0l3.3,10.1h10.6c0.2,0,0.4,0.1,0.5,0.3s0,0.4-0.2,0.6l-3.9,2.8h58.4l-3.9-2.8c-0.2-0.1-0.2-0.3-0.2-0.6
			s0.3-0.3,0.5-0.3h10.6l3.3-10.1c0.1-0.4,0.8-0.4,0.9,0l3.3,10.1h10.6c0.2,0,0.4,0.1,0.5,0.3s0,0.4-0.2,0.6l-3.9,2.8h58.4l-3.9-2.8
			c-0.2-0.1-0.2-0.3-0.2-0.6s0.3-0.3,0.5-0.3h10.6l3.3-10.1c0.1-0.4,0.8-0.4,0.9,0l3.3,10.1h10.6c0.2,0,0.4,0.1,0.5,0.3
			s0,0.4-0.2,0.6l-3.9,2.8h58.4l-3.9-2.8c-0.2-0.1-0.2-0.3-0.2-0.6s0.3-0.3,0.5-0.3h10.6l3.3-10.1c0.1-0.4,0.8-0.4,1,0l3.3,10.1
			h10.6c0.2,0,0.4,0.1,0.5,0.3s0,0.4-0.2,0.6l-3.9,2.8h58.4l-3.9-2.8c-0.2-0.1-0.2-0.3-0.2-0.6s0.3-0.3,0.5-0.3h10.6l3.3-10.1
			c0.1-0.4,0.8-0.4,1,0l3.3,10.1h10.6c0.2,0,0.4,0.1,0.5,0.3c0.1,0.2,0,0.4-0.2,0.6l-3.9,2.8h58.4l-3.9-2.8
			c-0.2-0.1-0.2-0.3-0.2-0.6s0.3-0.3,0.5-0.3h10.6l3.3-10.1c0.1-0.4,0.8-0.4,1,0l3.3,10.1h10.6c0.2,0,0.4,0.1,0.5,0.3
			c0.1,0.2,0,0.4-0.2,0.6l-3.9,2.8h58.4L545.4,597.2z M529.3,313.5c0.1,0.2,0,0.4-0.2,0.6c-0.1,0.1-0.2,0.1-0.3,0.1s-0.2,0-0.3-0.1
			l-8.6-6.2l-8.6,6.2c-0.2,0.1-0.4,0.1-0.6,0c-0.2-0.1-0.2-0.4-0.2-0.6l3.3-10.1l-8.6-6.2c-0.2-0.1-0.2-0.4-0.2-0.6s0.3-0.4,0.5-0.4
			h10.6l3.3-10.1c0.1-0.4,0.8-0.4,1,0l3.3,10.1h10.6c0.2,0,0.4,0.1,0.5,0.4s0,0.4-0.2,0.6l-8.6,6.2L529.3,313.5z M534.6,177.2
			l-8.6,6.2l3.3,10.1c0.1,0.2,0,0.4-0.2,0.6c-0.2,0.1-0.4,0.1-0.6,0l-8.6-6.2l-8.6,6.2c-0.1,0.1-0.2,0.1-0.3,0.1s-0.2,0-0.3-0.1
			c-0.2-0.1-0.2-0.4-0.2-0.6l3.3-10.1l-8.6-6.2c-0.2-0.1-0.2-0.4-0.2-0.6c0.1-0.2,0.3-0.4,0.5-0.4h10.6l3.3-10.1
			c0.1-0.4,0.8-0.4,1,0l3.3,10.1h10.6c0.2,0,0.4,0.1,0.5,0.4C534.9,176.8,534.8,177.1,534.6,177.2z M465.7,116.3h10.6l3.3-10.1
			c0.1-0.2,0.3-0.3,0.5-0.3s0.4,0.1,0.5,0.3l3.3,10.1h10.6c0.2,0,0.4,0.1,0.5,0.3s0,0.4-0.2,0.6l-8.6,6.2l3.3,10.1
			c0.1,0.2,0,0.4-0.2,0.6c-0.1,0.1-0.2,0.1-0.3,0.1s-0.2,0-0.3-0.1l-8.6-6.2l-8.6,6.2c-0.2,0.1-0.4,0.1-0.6,0
			c-0.2-0.1-0.2-0.4-0.2-0.6l3.3-10.1l-8.6-6.2c-0.2-0.1-0.2-0.3-0.2-0.6C465.3,116.4,465.5,116.3,465.7,116.3z M465.6,236.3h10.6
			l3.3-10.1c0.1-0.4,0.8-0.4,1,0l3.3,10.1h10.6c0.2,0,0.4,0.1,0.5,0.4s0,0.4-0.2,0.6l-8.6,6.2l3.3,10.1c0.1,0.2,0,0.4-0.2,0.6
			c-0.2,0.1-0.4,0.1-0.6,0l-8.6-6.2l-8.6,6.2c-0.1,0.1-0.2,0.1-0.3,0.1s-0.2,0-0.3-0.1c-0.2-0.1-0.2-0.4-0.2-0.6l3.3-10.1l-8.6-6.2
			c-0.2-0.1-0.2-0.4-0.2-0.6C465.2,236.4,465.4,236.3,465.6,236.3z M449.3,313.5c0.1,0.2,0,0.4-0.2,0.6c-0.1,0.1-0.2,0.1-0.3,0.1
			s-0.2,0-0.3-0.1l-8.6-6.2l-8.6,6.2c-0.2,0.1-0.4,0.1-0.6,0c-0.2-0.1-0.2-0.4-0.2-0.6l3.3-10.1l-8.6-6.2c-0.2-0.1-0.2-0.4-0.2-0.6
			s0.3-0.4,0.5-0.4h10.6l3.3-10.1c0.1-0.4,0.8-0.4,1,0l3.3,10.1h10.6c0.2,0,0.4,0.1,0.5,0.4s0,0.4-0.2,0.6l-8.6,6.2L449.3,313.5z
			 M454.6,177.2l-8.6,6.2l3.3,10.1c0.1,0.2,0,0.4-0.2,0.6c-0.2,0.1-0.4,0.1-0.6,0l-8.6-6.2l-8.6,6.2c-0.1,0.1-0.2,0.1-0.3,0.1
			s-0.2,0-0.3-0.1c-0.2-0.1-0.2-0.4-0.2-0.6l3.3-10.1l-8.6-6.2c-0.2-0.1-0.2-0.4-0.2-0.6c0.1-0.2,0.3-0.4,0.5-0.4h10.6l3.3-10.1
			c0.1-0.4,0.8-0.4,1,0l3.3,10.1h10.6c0.2,0,0.4,0.1,0.5,0.4C454.9,176.8,454.8,177.1,454.6,177.2z M385.7,116.3h10.6l3.3-10.1
			c0.1-0.2,0.3-0.3,0.5-0.3s0.4,0.1,0.5,0.3l3.3,10.1h10.6c0.2,0,0.4,0.1,0.5,0.3s0,0.4-0.2,0.6l-8.6,6.2l3.3,10.1
			c0.1,0.2,0,0.4-0.2,0.6c-0.1,0.1-0.2,0.1-0.3,0.1s-0.2,0-0.3-0.1l-8.6-6.2l-8.6,6.2c-0.2,0.1-0.4,0.1-0.6,0
			c-0.2-0.1-0.2-0.4-0.2-0.6l3.3-10.1l-8.6-6.2c-0.2-0.1-0.2-0.3-0.2-0.6C385.3,116.4,385.5,116.3,385.7,116.3z M385.6,236.3h10.6
			l3.3-10.1c0.1-0.4,0.8-0.4,1,0l3.3,10.1h10.6c0.2,0,0.4,0.1,0.5,0.4s0,0.4-0.2,0.6l-8.6,6.2l3.3,10.1c0.1,0.2,0,0.4-0.2,0.6
			c-0.2,0.1-0.4,0.1-0.6,0l-8.6-6.2l-8.6,6.2c-0.1,0.1-0.2,0.1-0.3,0.1s-0.2,0-0.3-0.1c-0.2-0.1-0.2-0.4-0.2-0.6l3.3-10.1l-8.6-6.2
			c-0.2-0.1-0.2-0.4-0.2-0.6C385.2,236.4,385.4,236.3,385.6,236.3z M369.3,313.5c0.1,0.2,0,0.4-0.2,0.6c-0.2,0.1-0.4,0.1-0.6,0
			l-8.6-6.2l-8.6,6.2c-0.1,0.1-0.2,0.1-0.3,0.1s-0.2,0-0.3-0.1c-0.2-0.1-0.2-0.4-0.2-0.6l3.3-10.1l-8.6-6.2
			c-0.2-0.1-0.2-0.4-0.2-0.6s0.3-0.4,0.5-0.4h10.6l3.3-10.1c0.1-0.4,0.8-0.4,1,0l3.3,10.1h10.6c0.2,0,0.4,0.1,0.5,0.4s0,0.4-0.2,0.6
			l-8.6,6.2L369.3,313.5z M374.6,177.2l-8.6,6.2l3.3,10.1c0.1,0.2,0,0.4-0.2,0.6c-0.2,0.1-0.4,0.1-0.6,0l-8.6-6.2l-8.6,6.2
			c-0.1,0.1-0.2,0.1-0.3,0.1s-0.2,0-0.3-0.1c-0.2-0.1-0.2-0.4-0.2-0.6l3.3-10.1l-8.6-6.2c-0.2-0.1-0.2-0.4-0.2-0.6
			c0.1-0.2,0.3-0.4,0.5-0.4h10.6l3.3-10.1c0.1-0.4,0.8-0.4,1,0l3.3,10.1h10.6c0.2,0,0.4,0.1,0.5,0.4
			C374.9,176.8,374.8,177.1,374.6,177.2z M345.5,56.3h10.6l3.3-10.1c0.1-0.4,0.8-0.4,1,0l3.3,10.1h10.6c0.2,0,0.4,0.1,0.5,0.3
			s0,0.4-0.2,0.6l-8.6,6.2l3.3,10.1c0.1,0.2,0,0.4-0.2,0.6c-0.2,0.1-0.4,0.1-0.6,0l-8.6-6.2l-8.6,6.2c-0.1,0.1-0.2,0.1-0.3,0.1
			s-0.2,0-0.3-0.1c-0.2-0.1-0.2-0.3-0.2-0.6l3.3-10.1l-8.6-6.2c-0.2-0.1-0.2-0.3-0.2-0.6C345.1,56.4,345.3,56.3,345.5,56.3z
			 M305.7,116.3h10.6l3.3-10.1c0.1-0.4,0.8-0.4,1,0l3.3,10.1h10.6c0.2,0,0.4,0.1,0.5,0.3s0,0.4-0.2,0.6l-8.6,6.2l3.3,10.1
			c0.1,0.2,0,0.4-0.2,0.6c-0.1,0.1-0.2,0.1-0.3,0.1s-0.2,0-0.3-0.1l-8.6-6.2l-8.6,6.2c-0.2,0.1-0.4,0.1-0.6,0s-0.2-0.4-0.2-0.6
			l3.3-10.1l-8.6-6.2c-0.2-0.1-0.2-0.3-0.2-0.6C305.3,116.4,305.5,116.3,305.7,116.3z M305.6,236.3h10.6l3.3-10.1
			c0.1-0.4,0.8-0.4,1,0l3.3,10.1h10.6c0.2,0,0.4,0.1,0.5,0.4s0,0.4-0.2,0.6l-8.6,6.2l3.3,10.1c0.1,0.2,0,0.4-0.2,0.6
			c-0.2,0.1-0.4,0.1-0.6,0l-8.6-6.2l-8.6,6.2c-0.1,0.1-0.2,0.1-0.3,0.1s-0.2,0-0.3-0.1c-0.2-0.1-0.2-0.4-0.2-0.6l3.3-10.1l-8.6-6.2
			c-0.2-0.1-0.2-0.4-0.2-0.6C305.2,236.4,305.4,236.3,305.6,236.3z M289.3,313.5c0.1,0.2,0,0.4-0.2,0.6c-0.1,0.1-0.2,0.1-0.3,0.1
			s-0.2,0-0.3-0.1l-8.6-6.2l-8.6,6.2c-0.2,0.1-0.4,0.1-0.6,0s-0.2-0.4-0.2-0.6l3.3-10.1l-8.6-6.2c-0.2-0.1-0.2-0.4-0.2-0.6
			s0.3-0.4,0.5-0.4h10.6l3.3-10.1c0.1-0.4,0.8-0.4,1,0l3.3,10.1h10.6c0.2,0,0.4,0.1,0.5,0.4s0,0.4-0.2,0.6l-8.6,6.2L289.3,313.5z
			 M294.6,177.2l-8.6,6.2l3.3,10.1c0.1,0.2,0,0.4-0.2,0.6c-0.1,0.1-0.2,0.1-0.3,0.1s-0.2,0-0.3-0.1l-8.6-6.2l-8.6,6.2
			c-0.2,0.1-0.4,0.1-0.6,0s-0.2-0.4-0.2-0.6l3.3-10.1l-8.6-6.2c-0.2-0.1-0.2-0.4-0.2-0.6c0.1-0.2,0.3-0.4,0.5-0.4h10.6l3.3-10.1
			c0.1-0.4,0.8-0.4,1,0l3.3,10.1h10.6c0.2,0,0.4,0.1,0.5,0.4C294.9,176.8,294.8,177.1,294.6,177.2z M271.3,74.1
			c-0.2,0.1-0.4,0.1-0.6,0s-0.2-0.3-0.2-0.6l3.3-10.1l-8.6-6.2c-0.2-0.1-0.2-0.3-0.2-0.6c0-0.2,0.2-0.3,0.5-0.3h10.6l3.3-10.1
			c0.1-0.4,0.8-0.4,1,0l3.3,10.1h10.6c0.2,0,0.4,0.1,0.5,0.3s0,0.4-0.2,0.6l-8.6,6.2l3.3,10.1c0.1,0.2,0,0.4-0.2,0.6
			c-0.1,0.1-0.2,0.1-0.3,0.1s-0.2,0-0.3-0.1 M225.7,116.3h10.6l3.3-10.1c0.1-0.4,0.8-0.4,0.9,0l3.3,10.1h10.6c0.2,0,0.4,0.1,0.5,0.3
			c0.1,0.2,0,0.4-0.2,0.6l-8.6,6.2l3.3,10.1c0.1,0.2,0,0.4-0.2,0.6c-0.1,0.1-0.2,0.1-0.3,0.1s-0.2,0-0.3-0.1l-8.6-6.2l-8.6,6.2
			c-0.2,0.1-0.4,0.1-0.6,0s-0.2-0.4-0.2-0.6l3.3-10.1l-8.6-6.2c-0.2-0.1-0.2-0.3-0.2-0.6C225.3,116.4,225.4,116.3,225.7,116.3z
			 M225.6,236.3h10.6l3.3-10.1c0.1-0.4,0.8-0.4,0.9,0l3.3,10.1h10.6c0.2,0,0.4,0.1,0.5,0.4c0.1,0.2,0,0.4-0.2,0.6l-8.6,6.2l3.3,10.1
			c0.1,0.2,0,0.4-0.2,0.6c-0.2,0.1-0.4,0.1-0.6,0l-8.6-6.2l-8.6,6.2c-0.1,0.1-0.2,0.1-0.3,0.1s-0.2,0-0.3-0.1
			c-0.2-0.1-0.2-0.4-0.2-0.6l3.3-10.1l-8.6-6.2c-0.2-0.1-0.2-0.4-0.2-0.6C225.2,236.4,225.4,236.3,225.6,236.3z M209.3,313.5
			c0.1,0.2,0,0.4-0.2,0.6c-0.1,0.1-0.2,0.1-0.3,0.1s-0.2,0-0.3-0.1l-8.6-6.2l-8.6,6.2c-0.2,0.1-0.4,0.1-0.6,0s-0.2-0.4-0.2-0.6
			l3.3-10.1l-8.6-6.2c-0.2-0.1-0.2-0.4-0.2-0.6s0.3-0.4,0.5-0.4h10.6l3.3-10.1c0.1-0.4,0.8-0.4,0.9,0l3.3,10.1h10.6
			c0.2,0,0.4,0.1,0.5,0.4c0.1,0.2,0,0.4-0.2,0.6l-8.6,6.2L209.3,313.5z M214.6,177.2l-8.6,6.2l3.3,10.1c0.1,0.2,0,0.4-0.2,0.6
			c-0.1,0.1-0.2,0.1-0.3,0.1s-0.2,0-0.3-0.1l-8.6-6.2l-8.6,6.2c-0.2,0.1-0.4,0.1-0.6,0s-0.2-0.4-0.2-0.6l3.3-10.1l-8.6-6.2
			c-0.2-0.1-0.2-0.4-0.2-0.6c0.1-0.2,0.3-0.4,0.5-0.4h10.6l3.3-10.1c0.1-0.4,0.8-0.4,0.9,0l3.3,10.1h10.6c0.2,0,0.4,0.1,0.5,0.4
			C214.9,176.8,214.8,177.1,214.6,177.2z M185.5,56.3h10.6l3.3-10.1c0.1-0.4,0.8-0.4,0.9,0l3.3,10.1h10.6c0.2,0,0.4,0.1,0.5,0.3
			c0.1,0.2,0,0.4-0.2,0.6l-8.6,6.2l3.3,10.1c0.1,0.2,0,0.4-0.2,0.6c-0.1,0.1-0.2,0.1-0.3,0.1s-0.2,0-0.3-0.1l-8.6-6.2l-8.6,6.2
			c-0.2,0.1-0.4,0.1-0.6,0s-0.2-0.3-0.2-0.6l3.3-10.1l-8.6-6.2c-0.2-0.1-0.2-0.3-0.2-0.6C185.1,56.4,185.3,56.3,185.5,56.3z
			 M145.7,116.3h10.6l3.3-10.1c0.1-0.4,0.8-0.4,0.9,0l3.3,10.1h10.6c0.2,0,0.4,0.1,0.5,0.3c0.1,0.2,0,0.4-0.2,0.6l-8.6,6.2l3.3,10.1
			c0.1,0.2,0,0.4-0.2,0.6c-0.1,0.1-0.2,0.1-0.3,0.1s-0.2,0-0.3-0.1l-8.6-6.2l-8.6,6.2c-0.2,0.1-0.4,0.1-0.6,0s-0.2-0.4-0.2-0.6
			l3.3-10.1l-8.6-6.2c-0.2-0.1-0.2-0.3-0.2-0.6C145.3,116.4,145.4,116.3,145.7,116.3z M145.6,236.3h10.6l3.3-10.1
			c0.1-0.4,0.8-0.4,0.9,0l3.3,10.1h10.6c0.2,0,0.4,0.1,0.5,0.4c0.1,0.2,0,0.4-0.2,0.6l-8.6,6.2l3.3,10.1c0.1,0.2,0,0.4-0.2,0.6
			c-0.2,0.1-0.4,0.1-0.6,0l-8.6-6.2l-8.6,6.2c-0.1,0.1-0.2,0.1-0.3,0.1s-0.2,0-0.3-0.1c-0.2-0.1-0.2-0.4-0.2-0.6l3.3-10.1l-8.6-6.2
			c-0.2-0.1-0.2-0.4-0.2-0.6C145.2,236.4,145.4,236.3,145.6,236.3z M129.3,313.5c0.1,0.2,0,0.4-0.2,0.6c-0.1,0.1-0.2,0.1-0.3,0.1
			s-0.2,0-0.3-0.1l-8.6-6.2l-8.6,6.2c-0.2,0.1-0.4,0.1-0.6,0c-0.2-0.1-0.2-0.4-0.2-0.6l3.3-10.1l-8.6-6.2c-0.2-0.1-0.2-0.4-0.2-0.6
			s0.3-0.4,0.5-0.4h10.6l3.3-10.1c0.1-0.4,0.8-0.4,0.9,0l3.3,10.1h10.6c0.2,0,0.4,0.1,0.5,0.4c0.1,0.2,0,0.4-0.2,0.6l-8.6,6.2
			L129.3,313.5z M134.6,177.2l-8.6,6.2l3.3,10.1c0.1,0.2,0,0.4-0.2,0.6c-0.1,0.1-0.2,0.1-0.3,0.1s-0.2,0-0.3-0.1l-8.6-6.2l-8.6,6.2
			c-0.2,0.1-0.4,0.1-0.6,0c-0.2-0.1-0.2-0.4-0.2-0.6l3.3-10.1l-8.6-6.2c-0.2-0.1-0.2-0.4-0.2-0.6c0.1-0.2,0.3-0.4,0.5-0.4h10.6
			l3.3-10.1c0.1-0.4,0.8-0.4,0.9,0l3.3,10.1h10.6c0.2,0,0.4,0.1,0.5,0.4C134.9,176.8,134.8,177.1,134.6,177.2z M105.5,56.3h10.6
			l3.3-10.1c0.1-0.4,0.8-0.4,0.9,0l3.3,10.1h10.6c0.2,0,0.4,0.1,0.5,0.3c0.1,0.2,0,0.4-0.2,0.6l-8.6,6.2l3.3,10.1
			c0.1,0.2,0,0.4-0.2,0.6c-0.1,0.1-0.2,0.1-0.3,0.1s-0.2,0-0.3-0.1l-8.6-6.2l-8.6,6.2c-0.2,0.1-0.4,0.1-0.6,0
			c-0.2-0.1-0.2-0.3-0.2-0.6l3.3-10.1l-8.6-6.2c-0.2-0.1-0.2-0.3-0.2-0.6C105.1,56.4,105.3,56.3,105.5,56.3z M65.7,116.3h10.6
			l3.3-10.1c0.1-0.4,0.8-0.4,0.9,0l3.3,10.1h10.6c0.2,0,0.4,0.1,0.5,0.3s0,0.4-0.2,0.6l-8.6,6.2l3.3,10.1c0.1,0.2,0,0.4-0.2,0.6
			c-0.1,0.1-0.2,0.1-0.3,0.1s-0.2,0-0.3-0.1l-8.6-6.2l-8.6,6.2c-0.2,0.1-0.4,0.1-0.6,0c-0.2-0.1-0.2-0.4-0.2-0.6l3.3-10.1l-8.6-6.2
			c-0.2-0.1-0.2-0.3-0.2-0.6C65.3,116.4,65.4,116.3,65.7,116.3z M65.6,236.3h10.6l3.3-10.1c0.1-0.4,0.8-0.4,0.9,0l3.3,10.1h10.6
			c0.2,0,0.4,0.1,0.5,0.4s0,0.4-0.2,0.6l-8.6,6.2l3.3,10.1c0.1,0.2,0,0.4-0.2,0.6c-0.2,0.1-0.4,0.1-0.6,0l-8.6-6.2l-8.6,6.2
			c-0.1,0.1-0.2,0.1-0.3,0.1s-0.2,0-0.3-0.1c-0.2-0.1-0.2-0.4-0.2-0.6l3.3-10.1l-8.6-6.2c-0.2-0.1-0.2-0.4-0.2-0.6
			C65.2,236.4,65.4,236.3,65.6,236.3z M49.3,313.5c0.1,0.2,0,0.4-0.2,0.6c-0.1,0.1-0.2,0.1-0.3,0.1s-0.2,0-0.3-0.1l-8.6-6.2
			l-8.6,6.2c-0.2,0.1-0.4,0.1-0.6,0s-0.2-0.4-0.2-0.6l3.3-10.1l-8.6-6.2c-0.2-0.1-0.2-0.4-0.2-0.6s0.3-0.4,0.5-0.4h10.6l3.3-10.1
			c0.1-0.4,0.8-0.4,1,0l3.3,10.1h10.6c0.2,0,0.4,0.1,0.5,0.4s0,0.4-0.2,0.6l-8.6,6.2L49.3,313.5z M54.6,177.2l-8.6,6.2l3.3,10.1
			c0.1,0.2,0,0.4-0.2,0.6c-0.1,0.1-0.2,0.1-0.3,0.1s-0.2,0-0.3-0.1l-8.6-6.2l-8.6,6.2c-0.2,0.1-0.4,0.1-0.6,0s-0.2-0.4-0.2-0.6
			l3.3-10.1l-8.6-6.2c-0.2-0.1-0.2-0.4-0.2-0.6c0.1-0.2,0.3-0.4,0.5-0.4h10.6l3.3-10.1c0.1-0.4,0.8-0.4,1,0l3.3,10.1h10.6
			c0.2,0,0.4,0.1,0.5,0.4C54.9,176.8,54.8,177.1,54.6,177.2z M25.5,56.3h10.6l3.3-10.1c0.1-0.4,0.8-0.4,1,0l3.3,10.1h10.6
			c0.2,0,0.4,0.1,0.5,0.3s0,0.4-0.2,0.6L46,63.4l3.3,10.1c0.1,0.2,0,0.4-0.2,0.6c-0.1,0.1-0.2,0.1-0.3,0.1s-0.2,0-0.3-0.1l-8.6-6.2
			l-8.6,6.2c-0.2,0.1-0.4,0.1-0.6,0s-0.2-0.3-0.2-0.6l3.3-10.1l-8.6-6.2c-0.2-0.1-0.2-0.3-0.2-0.6C25.1,56.4,25.3,56.3,25.5,56.3z
			 M54.6,537.2l-8.6,6.2l3.3,10.1c0.1,0.2,0,0.4-0.2,0.6c-0.2,0.1-0.4,0.1-0.6,0l-8.6-6.2l-8.6,6.2c-0.1,0.1-0.2,0.1-0.3,0.1
			s-0.2,0-0.3-0.1c-0.2-0.1-0.2-0.3-0.2-0.6l3.3-10.1l-8.6-6.2c-0.2-0.1-0.2-0.3-0.2-0.6s0.3-0.3,0.5-0.3h10.6l3.3-10.1
			c0.1-0.4,0.8-0.4,1,0l3.3,10.1h10.6c0.2,0,0.4,0.1,0.5,0.3S54.8,537.1,54.6,537.2z M54.6,417.2l-8.6,6.2l3.3,10.1
			c0.1,0.2,0,0.4-0.2,0.6c-0.2,0.1-0.4,0.1-0.6,0l-8.6-6.2l-8.6,6.2c-0.1,0.1-0.2,0.1-0.3,0.1s-0.2,0-0.3-0.1
			c-0.2-0.1-0.2-0.4-0.2-0.6l3.3-10.1l-8.6-6.2c-0.2-0.1-0.2-0.4-0.2-0.6s0.3-0.4,0.5-0.4h10.6l3.3-10.1c0.1-0.4,0.8-0.4,1,0
			l3.3,10.1h10.6c0.2,0,0.4,0.1,0.5,0.4S54.8,417.1,54.6,417.2z M94.7,477.2l-8.6,6.2l3.3,10.1c0.1,0.2,0,0.4-0.2,0.6
			c-0.1,0.1-0.2,0.1-0.3,0.1s-0.2,0-0.3-0.1l-8.6-6.2l-8.6,6.2c-0.2,0.1-0.4,0.1-0.6,0c-0.2-0.1-0.2-0.4-0.2-0.6l3.3-10.1l-8.6-6.2
			c-0.2-0.1-0.2-0.4-0.2-0.6s0.3-0.4,0.5-0.4h10.6l3.3-10.1c0.1-0.4,0.8-0.4,0.9,0l3.3,10.1h10.6c0.2,0,0.4,0.1,0.5,0.4
			S94.9,477.1,94.7,477.2z M94.7,357.2l-8.6,6.2l3.3,10.1c0.1,0.2,0,0.4-0.2,0.6c-0.1,0.1-0.2,0.1-0.3,0.1s-0.2,0-0.3-0.1l-8.6-6.2
			l-8.6,6.2c-0.2,0.1-0.4,0.1-0.6,0c-0.2-0.1-0.2-0.4-0.2-0.6l3.3-10.1l-8.6-6.2c-0.2-0.1-0.2-0.4-0.2-0.6s0.3-0.4,0.5-0.4h10.6
			l3.3-10.1c0.1-0.4,0.8-0.4,0.9,0l3.3,10.1h10.6c0.2,0,0.4,0.1,0.5,0.4S94.9,357.1,94.7,357.2z M134.6,537.2l-8.6,6.2l3.3,10.1
			c0.1,0.2,0,0.4-0.2,0.6c-0.2,0.1-0.4,0.1-0.6,0l-8.6-6.2l-8.6,6.2c-0.1,0.1-0.2,0.1-0.3,0.1s-0.2,0-0.3-0.1
			c-0.2-0.1-0.2-0.3-0.2-0.6l3.3-10.1l-8.6-6.2c-0.2-0.1-0.2-0.3-0.2-0.6s0.3-0.3,0.5-0.3h10.6l3.3-10.1c0.1-0.4,0.8-0.4,0.9,0
			l3.3,10.1h10.6c0.2,0,0.4,0.1,0.5,0.3S134.8,537.1,134.6,537.2z M134.6,417.2l-8.6,6.2l3.3,10.1c0.1,0.2,0,0.4-0.2,0.6
			c-0.2,0.1-0.4,0.1-0.6,0l-8.6-6.2l-8.6,6.2c-0.1,0.1-0.2,0.1-0.3,0.1s-0.2,0-0.3-0.1c-0.2-0.1-0.2-0.4-0.2-0.6l3.3-10.1l-8.6-6.2
			c-0.2-0.1-0.2-0.4-0.2-0.6s0.3-0.4,0.5-0.4h10.6l3.3-10.1c0.1-0.4,0.8-0.4,0.9,0l3.3,10.1h10.6c0.2,0,0.4,0.1,0.5,0.4
			S134.8,417.1,134.6,417.2z M174.7,477.2l-8.6,6.2l3.3,10.1c0.1,0.2,0,0.4-0.2,0.6c-0.1,0.1-0.2,0.1-0.3,0.1s-0.2,0-0.3-0.1
			l-8.6-6.2l-8.6,6.2c-0.2,0.1-0.4,0.1-0.6,0s-0.2-0.4-0.2-0.6l3.3-10.1l-8.6-6.2c-0.2-0.1-0.2-0.4-0.2-0.6s0.3-0.4,0.5-0.4h10.6
			l3.3-10.1c0.1-0.4,0.8-0.4,0.9,0l3.3,10.1h10.6c0.2,0,0.4,0.1,0.5,0.4S174.9,477.1,174.7,477.2z M174.7,357.2l-8.6,6.2l3.3,10.1
			c0.1,0.2,0,0.4-0.2,0.6c-0.1,0.1-0.2,0.1-0.3,0.1s-0.2,0-0.3-0.1l-8.6-6.2l-8.6,6.2c-0.2,0.1-0.4,0.1-0.6,0s-0.2-0.4-0.2-0.6
			l3.3-10.1l-8.6-6.2c-0.2-0.1-0.2-0.4-0.2-0.6s0.3-0.4,0.5-0.4h10.6l3.3-10.1c0.1-0.4,0.8-0.4,0.9,0l3.3,10.1h10.6
			c0.2,0,0.4,0.1,0.5,0.4S174.9,357.1,174.7,357.2z M214.6,537.2l-8.6,6.2l3.3,10.1c0.1,0.2,0,0.4-0.2,0.6c-0.2,0.1-0.4,0.1-0.6,0
			l-8.6-6.2l-8.6,6.2c-0.1,0.1-0.2,0.1-0.3,0.1s-0.2,0-0.3-0.1c-0.2-0.1-0.2-0.3-0.2-0.6l3.3-10.1l-8.6-6.2
			c-0.2-0.1-0.2-0.3-0.2-0.6s0.3-0.3,0.5-0.3h10.6l3.3-10.1c0.1-0.4,0.8-0.4,0.9,0l3.3,10.1h10.6c0.2,0,0.4,0.1,0.5,0.3
			S214.8,537.1,214.6,537.2z M214.6,417.2l-8.6,6.2l3.3,10.1c0.1,0.2,0,0.4-0.2,0.6c-0.2,0.1-0.4,0.1-0.6,0l-8.6-6.2l-8.6,6.2
			c-0.1,0.1-0.2,0.1-0.3,0.1s-0.2,0-0.3-0.1c-0.2-0.1-0.2-0.4-0.2-0.6l3.3-10.1l-8.6-6.2c-0.2-0.1-0.2-0.4-0.2-0.6s0.3-0.4,0.5-0.4
			h10.6l3.3-10.1c0.1-0.4,0.8-0.4,0.9,0l3.3,10.1h10.6c0.2,0,0.4,0.1,0.5,0.4S214.8,417.1,214.6,417.2z M254.7,477.2l-8.6,6.2
			l3.3,10.1c0.1,0.2,0,0.4-0.2,0.6c-0.1,0.1-0.2,0.1-0.3,0.1s-0.2,0-0.3-0.1l-8.6-6.2l-8.6,6.2c-0.2,0.1-0.4,0.1-0.6,0
			s-0.2-0.4-0.2-0.6l3.3-10.1l-8.6-6.2c-0.2-0.1-0.2-0.4-0.2-0.6s0.3-0.4,0.5-0.4h10.6l3.3-10.1c0.1-0.4,0.8-0.4,0.9,0l3.3,10.1
			h10.6c0.2,0,0.4,0.1,0.5,0.4S254.9,477.1,254.7,477.2z M254.7,357.2l-8.6,6.2l3.3,10.1c0.1,0.2,0,0.4-0.2,0.6
			c-0.1,0.1-0.2,0.1-0.3,0.1s-0.2,0-0.3-0.1l-8.6-6.2l-8.6,6.2c-0.2,0.1-0.4,0.1-0.6,0s-0.2-0.4-0.2-0.6l3.3-10.1l-8.6-6.2
			c-0.2-0.1-0.2-0.4-0.2-0.6s0.3-0.4,0.5-0.4h10.6l3.3-10.1c0.1-0.4,0.8-0.4,0.9,0l3.3,10.1h10.6c0.2,0,0.4,0.1,0.5,0.4
			S254.9,357.1,254.7,357.2z M294.6,537.2l-8.6,6.2l3.3,10.1c0.1,0.2,0,0.4-0.2,0.6c-0.2,0.1-0.4,0.1-0.6,0l-8.6-6.2l-8.6,6.2
			c-0.1,0.1-0.2,0.1-0.3,0.1s-0.2,0-0.3-0.1c-0.2-0.1-0.2-0.3-0.2-0.6l3.3-10.1l-8.6-6.2c-0.2-0.1-0.2-0.3-0.2-0.6s0.3-0.3,0.5-0.3
			h10.6l3.3-10.1c0.1-0.4,0.8-0.4,1,0l3.3,10.1h10.6c0.2,0,0.4,0.1,0.5,0.3S294.8,537.1,294.6,537.2z M294.6,417.2l-8.6,6.2
			l3.3,10.1c0.1,0.2,0,0.4-0.2,0.6c-0.2,0.1-0.4,0.1-0.6,0l-8.6-6.2l-8.6,6.2c-0.1,0.1-0.2,0.1-0.3,0.1s-0.2,0-0.3-0.1
			c-0.2-0.1-0.2-0.4-0.2-0.6l3.3-10.1l-8.6-6.2c-0.2-0.1-0.2-0.4-0.2-0.6s0.3-0.4,0.5-0.4h10.6l3.3-10.1c0.1-0.4,0.8-0.4,1,0
			l3.3,10.1h10.6c0.2,0,0.4,0.1,0.5,0.4S294.8,417.1,294.6,417.2z M334.7,477.2l-8.6,6.2l3.3,10.1c0.1,0.2,0,0.4-0.2,0.6
			c-0.1,0.1-0.2,0.1-0.3,0.1s-0.2,0-0.3-0.1l-8.6-6.2l-8.6,6.2c-0.2,0.1-0.4,0.1-0.6,0s-0.2-0.4-0.2-0.6l3.3-10.1l-8.6-6.2
			c-0.2-0.1-0.2-0.4-0.2-0.6s0.3-0.4,0.5-0.4h10.6l3.3-10.1c0.1-0.4,0.8-0.4,1,0l3.3,10.1h10.6c0.2,0,0.4,0.1,0.5,0.4
			S334.9,477.1,334.7,477.2z M334.7,357.2l-8.6,6.2l3.3,10.1c0.1,0.2,0,0.4-0.2,0.6c-0.1,0.1-0.2,0.1-0.3,0.1s-0.2,0-0.3-0.1
			l-8.6-6.2l-8.6,6.2c-0.2,0.1-0.4,0.1-0.6,0s-0.2-0.4-0.2-0.6l3.3-10.1l-8.6-6.2c-0.2-0.1-0.2-0.4-0.2-0.6s0.3-0.4,0.5-0.4h10.6
			l3.3-10.1c0.1-0.4,0.8-0.4,1,0l3.3,10.1h10.6c0.2,0,0.4,0.1,0.5,0.4S334.9,357.1,334.7,357.2z M374.6,537.2l-8.6,6.2l3.3,10.1
			c0.1,0.2,0,0.4-0.2,0.6c-0.1,0.1-0.2,0.1-0.3,0.1s-0.2,0-0.3-0.1l-8.6-6.2l-8.6,6.2c-0.2,0.1-0.4,0.1-0.6,0s-0.2-0.3-0.2-0.6
			l3.3-10.1l-8.6-6.2c-0.2-0.1-0.2-0.3-0.2-0.6s0.3-0.3,0.5-0.3h10.6l3.3-10.1c0.1-0.4,0.8-0.4,1,0l3.3,10.1h10.6
			c0.2,0,0.4,0.1,0.5,0.3C374.9,536.8,374.8,537.1,374.6,537.2z M374.6,417.2l-8.6,6.2l3.3,10.1c0.1,0.2,0,0.4-0.2,0.6
			c-0.1,0.1-0.2,0.1-0.3,0.1s-0.2,0-0.3-0.1l-8.6-6.2l-8.6,6.2c-0.2,0.1-0.4,0.1-0.6,0s-0.2-0.4-0.2-0.6l3.3-10.1l-8.6-6.2
			c-0.2-0.1-0.2-0.4-0.2-0.6s0.3-0.4,0.5-0.4h10.6l3.3-10.1c0.1-0.4,0.8-0.4,1,0l3.3,10.1h10.6c0.2,0,0.4,0.1,0.5,0.4
			C374.9,416.8,374.8,417.1,374.6,417.2z M414.7,477.2l-8.6,6.2l3.3,10.1c0.1,0.2,0,0.4-0.2,0.6c-0.2,0.1-0.4,0.1-0.6,0l-8.6-6.2
			l-8.6,6.2c-0.1,0.1-0.2,0.1-0.3,0.1s-0.2,0-0.3-0.1c-0.2-0.1-0.2-0.4-0.2-0.6l3.3-10.1l-8.6-6.2c-0.2-0.1-0.2-0.4-0.2-0.6
			s0.3-0.4,0.5-0.4h10.6l3.3-10.1c0.1-0.4,0.8-0.4,1,0l3.3,10.1h10.6c0.2,0,0.4,0.1,0.5,0.4C414.9,476.8,414.9,477.1,414.7,477.2z
			 M414.7,357.2l-8.6,6.2l3.3,10.1c0.1,0.2,0,0.4-0.2,0.6c-0.1,0.1-0.2,0.1-0.3,0.1s-0.2,0-0.3-0.1l-8.6-6.2l-8.6,6.2
			c-0.2,0.1-0.4,0.1-0.6,0c-0.2-0.1-0.2-0.4-0.2-0.6l3.3-10.1l-8.6-6.2c-0.2-0.1-0.2-0.4-0.2-0.6s0.3-0.4,0.5-0.4h10.6l3.3-10.1
			c0.1-0.4,0.8-0.4,1,0l3.3,10.1h10.6c0.2,0,0.4,0.1,0.5,0.4C415,356.8,414.9,357.1,414.7,357.2z M425.5,56.3h10.6l3.3-10.1
			c0.1-0.4,0.8-0.4,1,0l3.3,10.1h10.6c0.2,0,0.4,0.1,0.5,0.3s0,0.4-0.2,0.6l-8.6,6.2l3.3,10.1c0.1,0.2,0,0.4-0.2,0.6
			c-0.1,0.1-0.2,0.1-0.3,0.1s-0.2,0-0.3-0.1l-8.6-6.2l-8.6,6.2c-0.2,0.1-0.4,0.1-0.6,0c-0.2-0.1-0.2-0.3-0.2-0.6l3.3-10.1l-8.6-6.2
			c-0.2-0.1-0.2-0.3-0.2-0.6C425.1,56.4,425.3,56.3,425.5,56.3z M454.6,537.2l-8.6,6.2l3.3,10.1c0.1,0.2,0,0.4-0.2,0.6
			c-0.2,0.1-0.4,0.1-0.6,0l-8.6-6.2l-8.6,6.2c-0.1,0.1-0.2,0.1-0.3,0.1s-0.2,0-0.3-0.1c-0.2-0.1-0.2-0.3-0.2-0.6l3.3-10.1l-8.6-6.2
			c-0.2-0.1-0.2-0.3-0.2-0.6s0.3-0.3,0.5-0.3h10.6l3.3-10.1c0.1-0.4,0.8-0.4,1,0l3.3,10.1h10.6c0.2,0,0.4,0.1,0.5,0.3
			C454.9,536.8,454.8,537.1,454.6,537.2z M454.6,417.2l-8.6,6.2l3.3,10.1c0.1,0.2,0,0.4-0.2,0.6c-0.1,0.1-0.2,0.1-0.3,0.1
			s-0.2,0-0.3-0.1l-8.6-6.2l-8.6,6.2c-0.2,0.1-0.4,0.1-0.6,0c-0.2-0.1-0.2-0.4-0.2-0.6l3.3-10.1l-8.6-6.2c-0.2-0.1-0.2-0.4-0.2-0.6
			s0.3-0.4,0.5-0.4h10.6l3.3-10.1c0.1-0.4,0.8-0.4,1,0l3.3,10.1h10.6c0.2,0,0.4,0.1,0.5,0.4C454.9,416.8,454.8,417.1,454.6,417.2z
			 M494.7,477.2l-8.6,6.2l3.3,10.1c0.1,0.2,0,0.4-0.2,0.6c-0.2,0.1-0.4,0.1-0.6,0l-8.6-6.2l-8.6,6.2c-0.1,0.1-0.2,0.1-0.3,0.1
			s-0.2,0-0.3-0.1c-0.2-0.1-0.2-0.4-0.2-0.6l3.3-10.1l-8.6-6.2c-0.2-0.1-0.2-0.4-0.2-0.6s0.3-0.4,0.5-0.4h10.6l3.3-10.1
			c0.1-0.4,0.8-0.4,1,0l3.3,10.1h10.6c0.2,0,0.4,0.1,0.5,0.4C494.9,476.8,494.9,477.1,494.7,477.2z M494.7,357.2l-8.6,6.2l3.3,10.1
			c0.1,0.2,0,0.4-0.2,0.6c-0.1,0.1-0.2,0.1-0.3,0.1s-0.2,0-0.3-0.1l-8.6-6.2l-8.6,6.2c-0.2,0.1-0.4,0.1-0.6,0
			c-0.2-0.1-0.2-0.4-0.2-0.6l3.3-10.1l-8.6-6.2c-0.2-0.1-0.2-0.4-0.2-0.6s0.3-0.4,0.5-0.4h10.6l3.3-10.1c0.1-0.4,0.8-0.4,1,0
			l3.3,10.1h10.6c0.2,0,0.4,0.1,0.5,0.4C495,356.8,494.9,357.1,494.7,357.2z M505.5,56.3h10.6l3.3-10.1c0.1-0.4,0.8-0.4,1,0
			l3.3,10.1h10.6c0.2,0,0.4,0.1,0.5,0.3s0,0.4-0.2,0.6l-8.6,6.2l3.3,10.1c0.1,0.2,0,0.4-0.2,0.6c-0.1,0.1-0.2,0.1-0.3,0.1
			s-0.2,0-0.3-0.1l-8.6-6.2l-8.6,6.2c-0.2,0.1-0.4,0.1-0.6,0c-0.2-0.1-0.2-0.3-0.2-0.6l3.3-10.1l-8.6-6.2c-0.2-0.1-0.2-0.3-0.2-0.6
			C505.1,56.4,505.3,56.3,505.5,56.3z M534.6,537.2l-8.6,6.2l3.3,10.1c0.1,0.2,0,0.4-0.2,0.6c-0.2,0.1-0.4,0.1-0.6,0l-8.6-6.2
			l-8.6,6.2c-0.1,0.1-0.2,0.1-0.3,0.1s-0.2,0-0.3-0.1c-0.2-0.1-0.2-0.3-0.2-0.6l3.3-10.1l-8.6-6.2c-0.2-0.1-0.2-0.3-0.2-0.6
			s0.3-0.3,0.5-0.3h10.6l3.3-10.1c0.1-0.4,0.8-0.4,1,0l3.3,10.1h10.6c0.2,0,0.4,0.1,0.5,0.3C534.8,536.8,534.8,537.1,534.6,537.2z
			 M534.7,417.2l-8.6,6.2l3.3,10.1c0.1,0.2,0,0.4-0.2,0.6c-0.1,0.1-0.2,0.1-0.3,0.1s-0.2,0-0.3-0.1l-8.6-6.2l-8.6,6.2
			c-0.2,0.1-0.4,0.1-0.6,0c-0.2-0.1-0.2-0.4-0.2-0.6l3.3-10.1l-8.6-6.2c-0.2-0.1-0.2-0.4-0.2-0.6s0.3-0.4,0.5-0.4h10.6l3.3-10.1
			c0.1-0.4,0.8-0.4,1,0l3.3,10.1h10.6c0.2,0,0.4,0.1,0.5,0.4C534.9,416.8,534.8,417.1,534.7,417.2z"/>
		<path class="st0" d="M323,356.9l-2.9-9l-2.9,9c-0.1,0.2-0.3,0.4-0.5,0.4h-9.4l7.6,5.5c0.2,0.1,0.2,0.4,0.2,0.6l-2.9,9l7.6-5.5
			c0.2-0.1,0.4-0.1,0.6,0l7.6,5.5l-2.9-9c-0.1-0.2,0-0.4,0.2-0.6l7.6-5.5h-9.4C323.2,357.3,323,357.1,323,356.9z"/>
		<path class="st0" d="M434.9,63.4l-2.9,9l7.6-5.6c0.1-0.1,0.2-0.1,0.3-0.1s0.2,0,0.3,0.1l7.6,5.6l-2.9-9c-0.1-0.2,0-0.4,0.2-0.6
			l7.6-5.5h-9.4c-0.2,0-0.4-0.1-0.5-0.3l-2.9-9l-2.9,9c-0.1,0.2-0.3,0.3-0.5,0.3h-9.4l7.6,5.5C434.9,63,435,63.2,434.9,63.4z"/>
		<path class="st0" d="M402.9,476.9l-2.9-9l-2.9,9c-0.1,0.2-0.3,0.4-0.5,0.4h-9.4l7.6,5.5c0.2,0.1,0.2,0.4,0.2,0.6l-2.9,9l7.6-5.5
			c0.2-0.1,0.4-0.1,0.6,0l7.6,5.5l-2.9-9c-0.1-0.2,0-0.4,0.2-0.6l7.6-5.5h-9.4C403.2,477.3,403,477.1,402.9,476.9z"/>
		<path class="st0" d="M483.5,597.3c-0.2,0-0.4-0.1-0.5-0.3l-2.9-9l-2.9,9c-0.1,0.2-0.3,0.3-0.5,0.3h-9.4l3.8,2.7h18.2l3.8-2.7
			H483.5z"/>
		<path class="st0" d="M362.9,296.9l-2.9-9l-2.9,9c-0.1,0.2-0.3,0.4-0.5,0.4h-9.4l7.6,5.5c0.2,0.1,0.2,0.4,0.2,0.6l-2.9,9l7.6-5.5
			c0.2-0.1,0.4-0.1,0.6,0l7.6,5.5l-2.9-9c-0.1-0.2,0-0.4,0.2-0.6l7.6-5.5h-9.4C363.1,297.3,362.9,297.1,362.9,296.9z"/>
		<path class="st0" d="M522.9,416.9l-2.9-9l-2.9,9c-0.1,0.2-0.3,0.4-0.5,0.4h-9.4l7.6,5.5c0.2,0.1,0.2,0.4,0.2,0.6l-2.9,9l7.6-5.5
			c0.1-0.1,0.2-0.1,0.3-0.1s0.2,0,0.3,0.1l7.6,5.5l-2.9-9c-0.1-0.2,0-0.4,0.2-0.6l7.6-5.5h-9.4C523.2,417.3,523,417.1,522.9,416.9z"
			/>
		<path class="st0" d="M80.3,6.8c-0.1-0.1-0.2-0.1-0.3-0.1s-0.2,0-0.3,0.1l-7.6,5.5l2.9-9c0.1-0.2,0-0.4-0.2-0.6L70.9,0h-1.7
			l4.7,3.4l-3.3,10.1c-0.1,0.2,0,0.4,0.2,0.6c0.2,0.1,0.4,0.1,0.6,0L80,7.8l8.6,6.2c0.1,0.1,0.2,0.1,0.3,0.1s0.2,0,0.3-0.1
			c0.2-0.1,0.2-0.4,0.2-0.6L86.1,3.4L90.8,0h-1.7l-3.9,2.8C85,3,84.9,3.2,85,3.4"/>
		<path class="st0" d="M6.1,3.4L10.8,0H9.1L5.2,2.8C5,3,4.9,3.2,5,3.4l2.9,9L0.3,6.8C0.2,6.8,0.1,6.7,0,6.7v1.1l8.6,6.2
			c0.1,0.1,0.2,0.1,0.3,0.1s0.2,0,0.3-0.1"/>
		<path class="st0" d="M152.1,12.4l2.9-9c0.1-0.2,0-0.4-0.2-0.6L150.9,0h-1.7l4.7,3.4l-3.3,10.1c-0.1,0.2,0,0.4,0.2,0.6
			c0.2,0.1,0.4,0.1,0.6,0l8.6-6.3l8.6,6.2c0.1,0.1,0.2,0.1,0.3,0.1s0.2,0,0.3-0.1c0.2-0.1,0.2-0.4,0.2-0.6l-3.3-10.1l4.7-3.4h-1.7
			l-3.9,2.8C165,3,164.9,3.2,165,3.4l2.9,9l-7.6-5.6c-0.1-0.1-0.2-0.1-0.3-0.1"/>
		<path class="st0" d="M248.6,14.1c0.1,0.1,0.2,0.1,0.3,0.1s0.2,0,0.3-0.1c0.2-0.1,0.2-0.4,0.2-0.6l-3.3-10.1l4.7-3.4h-1.7l-3.9,2.8
			C245,3,244.9,3.2,245,3.4l2.9,9l-7.6-5.6c-0.1-0.1-0.2-0.1-0.3-0.1s-0.2,0-0.3,0.1l-7.6,5.6l2.9-9c0.1-0.2,0-0.4-0.2-0.6L230.9,0
			h-1.7l4.7,3.4l-3.3,10.1c-0.1,0.2,0,0.4,0.2,0.6c0.2,0.1,0.4,0.1,0.6,0l8.6-6.3"/>
		<path class="st0" d="M399.7,6.8l-7.6,5.5l2.9-9c0.1-0.2,0-0.4-0.2-0.6L390.9,0h-1.7l4.7,3.4l-3.3,10.1c-0.1,0.2,0,0.4,0.2,0.6
			c0.2,0.1,0.4,0.1,0.6,0l8.6-6.3l8.6,6.2c0.1,0.1,0.2,0.1,0.3,0.1s0.2,0,0.3-0.1c0.2-0.1,0.2-0.4,0.2-0.6l-3.3-10.1l4.7-3.4h-1.7
			l-3.9,2.8C405,3,404.9,3.2,405,3.4l2.9,9l-7.6-5.5"/>
		<path class="st0" d="M488.6,14.1c0.1,0.1,0.2,0.1,0.3,0.1s0.2,0,0.3-0.1c0.2-0.1,0.2-0.4,0.2-0.6l-3.3-10.1l4.7-3.4h-1.7l-3.9,2.8
			C485,3,484.9,3.2,485,3.4l2.9,9l-7.6-5.5c-0.1-0.1-0.2-0.1-0.3-0.1s-0.2,0-0.3,0.1l-7.6,5.5l2.9-9c0.1-0.2,0-0.4-0.2-0.6L470.9,0
			h-1.7l4.7,3.4l-3.3,10.1c-0.1,0.2,0,0.4,0.2,0.6c0.2,0.1,0.4,0.1,0.6,0"/>
		<path class="st0" d="M113.8,63.4l-3.3,10.1c-0.1,0.2,0,0.4,0.2,0.6c0.2,0.1,0.4,0.1,0.6,0l8.6-6.2l8.6,6.2
			c0.1,0.1,0.2,0.1,0.3,0.1s0.2,0,0.3-0.1c0.2-0.1,0.2-0.3,0.2-0.6L126,63.4l8.6-6.2c0.2-0.1,0.2-0.3,0.2-0.6
			c-0.1-0.2-0.3-0.3-0.5-0.3h-10.6l-3.3-10.1c-0.1-0.4-0.8-0.4-0.9,0l-3.3,10.1h-10.6c-0.2,0-0.4,0.1-0.5,0.3s0,0.4,0.2,0.6
			L113.8,63.4z M132.8,57.3l-7.6,5.5c-0.2,0.1-0.2,0.3-0.2,0.6l2.9,9l-7.6-5.6c-0.2-0.1-0.4-0.1-0.6,0l-7.6,5.6l2.9-9
			c0.1-0.2,0-0.4-0.2-0.6l-7.6-5.5h9.4c0.2,0,0.4-0.1,0.5-0.3l2.9-9l2.9,9"/>
		<path class="st0" d="M33.8,63.4l-3.3,10.1c-0.1,0.2,0,0.4,0.2,0.6c0.2,0.1,0.4,0.1,0.6,0l8.6-6.2l8.6,6.2c0.1,0.1,0.2,0.1,0.3,0.1
			s0.2,0,0.3-0.1c0.2-0.1,0.2-0.3,0.2-0.6L46,63.4l8.6-6.2c0.2-0.1,0.2-0.3,0.2-0.6c-0.1-0.2-0.3-0.3-0.5-0.3H43.7l-3.3-10.1
			c-0.1-0.4-0.8-0.4-1,0l-3.3,10.1H25.5c-0.2,0-0.4,0.1-0.5,0.3s0,0.4,0.2,0.6L33.8,63.4z M40.2,66.8c-0.2-0.1-0.4-0.1-0.6,0
			L32,72.4l2.9-9c0.1-0.2,0-0.4-0.2-0.6l-7.6-5.5h9.4c0.2,0,0.4-0.1,0.5-0.3l2.9-9l2.9,9c0.1,0.2,0.3,0.3,0.5,0.3h9.4l-7.6,5.5
			c-0.2,0.1-0.2,0.3-0.2,0.6"/>
		<path class="st0" d="M193.8,63.4l-3.3,10.1c-0.1,0.2,0,0.4,0.2,0.6c0.2,0.1,0.4,0.1,0.6,0l8.6-6.2l8.6,6.2
			c0.1,0.1,0.2,0.1,0.3,0.1s0.2,0,0.3-0.1c0.2-0.1,0.2-0.3,0.2-0.6L206,63.4l8.6-6.2c0.2-0.1,0.2-0.3,0.2-0.6
			c-0.1-0.2-0.3-0.3-0.5-0.3h-10.6l-3.3-10.1c-0.1-0.4-0.8-0.4-0.9,0l-3.3,10.1h-10.6c-0.2,0-0.4,0.1-0.5,0.3
			c-0.1,0.2,0,0.4,0.2,0.6L193.8,63.4z M199.6,66.8l-7.6,5.6l2.9-9c0.1-0.2,0-0.4-0.2-0.6l-7.6-5.5h9.4c0.2,0,0.4-0.1,0.5-0.3l2.9-9
			l2.9,9c0.1,0.2,0.3,0.3,0.5,0.3h9.4l-7.6,5.5c-0.2,0.1-0.2,0.3-0.2,0.6l2.9,9"/>
		<path class="st0" d="M280.4,46.2c-0.1-0.4-0.8-0.4-1,0 M294.6,57.2c0.2-0.1,0.2-0.3,0.2-0.6c-0.1-0.2-0.3-0.3-0.5-0.3 M288.5,74.1
			c0.1,0.1,0.2,0.1,0.3,0.1s0.2,0,0.3-0.1c0.2-0.1,0.2-0.3,0.2-0.6"/>
		<path class="st0" d="M353.8,63.4l-3.3,10.1c-0.1,0.2,0,0.4,0.2,0.6c0.1,0.1,0.2,0.1,0.3,0.1s0.2,0,0.3-0.1l8.6-6.2l8.6,6.2
			c0.2,0.1,0.4,0.1,0.6,0c0.2-0.1,0.2-0.3,0.2-0.6L366,63.4l8.6-6.2c0.2-0.1,0.2-0.3,0.2-0.6c-0.1-0.2-0.3-0.3-0.5-0.3h-10.6
			l-3.3-10.1c-0.1-0.4-0.8-0.4-1,0l-3.3,10.1h-10.6c-0.2,0-0.4,0.1-0.5,0.3s0,0.4,0.2,0.6L353.8,63.4z M357,56.9l2.9-9l2.9,9
			c0.1,0.2,0.3,0.3,0.5,0.3h9.4l-7.6,5.5c-0.2,0.1-0.2,0.3-0.2,0.6l2.9,9l-7.6-5.6c-0.2-0.1-0.4-0.1-0.6,0l-7.6,5.6l2.9-9
			c0.1-0.2,0-0.4-0.2-0.6l-7.6-5.5"/>
		<path class="st0" d="M433.8,63.4l-3.3,10.1c-0.1,0.2,0,0.4,0.2,0.6c0.2,0.1,0.4,0.1,0.6,0l8.6-6.2l8.6,6.2
			c0.1,0.1,0.2,0.1,0.3,0.1s0.2,0,0.3-0.1c0.2-0.1,0.2-0.3,0.2-0.6L446,63.4l8.6-6.2c0.2-0.1,0.2-0.3,0.2-0.6
			c-0.1-0.2-0.3-0.3-0.5-0.3h-10.6l-3.3-10.1c-0.1-0.4-0.8-0.4-1,0l-3.3,10.1h-10.6c-0.2,0-0.4,0.1-0.5,0.3s0,0.4,0.2,0.6
			L433.8,63.4z M442.8,56.9c0.1,0.2,0.3,0.3,0.5,0.3h9.4l-7.6,5.5c-0.2,0.1-0.2,0.3-0.2,0.6l2.9,9l-7.6-5.6
			c-0.1-0.1-0.2-0.1-0.3-0.1s-0.2,0-0.3,0.1l-7.6,5.6l2.9-9c0.1-0.2,0-0.4-0.2-0.6l-7.6-5.5h9.4c0.2,0,0.4-0.1,0.5-0.3"/>
		<path class="st1" d="M513.8,63.4l-3.3,10.1c-0.1,0.2,0,0.4,0.2,0.6c0.2,0.1,0.4,0.1,0.6,0l8.6-6.2l8.6,6.2
			c0.1,0.1,0.2,0.1,0.3,0.1s0.2,0,0.3-0.1c0.2-0.1,0.2-0.3,0.2-0.6L526,63.4l8.6-6.2c0.2-0.1,0.2-0.3,0.2-0.6
			c-0.1-0.2-0.3-0.3-0.5-0.3h-10.6l-3.3-10.1c-0.1-0.4-0.8-0.4-1,0l-3.3,10.1h-10.6c-0.2,0-0.4,0.1-0.5,0.3s0,0.4,0.2,0.6
			L513.8,63.4z M516.5,57.3c0.2,0,0.4-0.1,0.5-0.3l2.9-9l2.9,9c0.1,0.2,0.3,0.3,0.5,0.3h9.4l-7.6,5.5c-0.2,0.1-0.2,0.3-0.2,0.6
			l2.9,9l-7.6-5.6c-0.1-0.1-0.2-0.1-0.3-0.1s-0.2,0-0.3,0.1l-7.6,5.6l2.9-9c0.1-0.2,0-0.4-0.2-0.6l-7.6-5.5H516.5z"/>
		<path class="st1" d="M74,123.4l-3.3,10.1c-0.1,0.2,0,0.4,0.2,0.6c0.2,0.1,0.4,0.1,0.6,0l8.6-6.2l8.6,6.2c0.1,0.1,0.2,0.1,0.3,0.1
			s0.2,0,0.3-0.1c0.2-0.1,0.2-0.4,0.2-0.6l-3.3-10.1l8.6-6.2c0.2-0.1,0.2-0.3,0.2-0.6s-0.3-0.3-0.5-0.3H83.8l-3.3-10.1
			c-0.1-0.4-0.8-0.4-0.9,0l-3.3,10.1H65.7c-0.2,0-0.4,0.1-0.5,0.3s0,0.4,0.2,0.6L74,123.4z M76.6,117.3c0.2,0,0.4-0.1,0.5-0.3l2.9-9
			l2.9,9c0.1,0.2,0.3,0.3,0.5,0.3h9.4l-7.6,5.6c-0.2,0.1-0.2,0.3-0.2,0.6l2.9,9l-7.6-5.6c-0.1-0.1-0.2-0.1-0.3-0.1s-0.2,0-0.3,0.1
			l-7.6,5.6l2.9-9c0.1-0.2,0-0.4-0.2-0.6l-7.6-5.6C67.2,117.3,76.6,117.3,76.6,117.3z"/>
		<path class="st0" d="M5.2,122.8c-0.2,0.1-0.2,0.3-0.2,0.6l2.9,9l-7.6-5.6c-0.1-0.1-0.2-0.1-0.3-0.1c0,0,0,0,0,0v1.1l0,0l8.6,6.2
			c0.1,0.1,0.2,0.1,0.3,0.1s0.2,0,0.3-0.1c0.2-0.1,0.2-0.4,0.2-0.6l-3.3-10.1l8.6-6.2c0.2-0.1,0.2-0.3,0.2-0.6s-0.3-0.3-0.5-0.3H3.8
			l-3.3-10.1c-0.1-0.2-0.3-0.3-0.5-0.3v2.2l0-0.1l2.9,9c0.1,0.2,0.3,0.3,0.5,0.3"/>
		<path class="st0" d="M154,123.4l-3.3,10.1c-0.1,0.2,0,0.4,0.2,0.6c0.2,0.1,0.4,0.1,0.6,0l8.6-6.2l8.6,6.2c0.1,0.1,0.2,0.1,0.3,0.1
			s0.2,0,0.3-0.1c0.2-0.1,0.2-0.4,0.2-0.6l-3.3-10.1l8.6-6.2c0.2-0.1,0.2-0.3,0.2-0.6s-0.3-0.3-0.5-0.3h-10.6l-3.3-10.1
			c-0.1-0.4-0.8-0.4-0.9,0l-3.3,10.1h-10.6c-0.2,0-0.4,0.1-0.5,0.3c-0.1,0.2,0,0.4,0.2,0.6L154,123.4z M159.8,126.8l-7.6,5.6l2.9-9
			c0.1-0.2,0-0.4-0.2-0.6l-7.6-5.6c0,0,9.4,0,9.4,0c0.2,0,0.4-0.1,0.5-0.3l2.9-9l2.9,9c0.1,0.2,0.3,0.3,0.5,0.3h9.4l-7.6,5.6
			c-0.2,0.1-0.2,0.3-0.2,0.6l2.9,9l-7.6-5.6"/>
		<path class="st0" d="M234,123.4l-3.3,10.1c-0.1,0.2,0,0.4,0.2,0.6c0.2,0.1,0.4,0.1,0.6,0l8.6-6.2l8.6,6.2c0.1,0.1,0.2,0.1,0.3,0.1
			s0.2,0,0.3-0.1c0.2-0.1,0.2-0.4,0.2-0.6l-3.3-10.1l8.6-6.2c0.2-0.1,0.2-0.3,0.2-0.6s-0.3-0.3-0.5-0.3h-10.6l-3.3-10.1
			c-0.1-0.4-0.8-0.4-0.9,0l-3.3,10.1h-10.6c-0.2,0-0.4,0.1-0.5,0.3c-0.1,0.2,0,0.4,0.2,0.6L234,123.4z M240.1,126.7
			c-0.1,0-0.2,0-0.3,0.1l-7.6,5.6l2.9-9c0.1-0.2,0-0.4-0.2-0.6l-7.6-5.6c0,0,9.4,0,9.4,0c0.2,0,0.4-0.1,0.5-0.3l2.9-9l2.9,9
			c0.1,0.2,0.3,0.3,0.5,0.3h9.4l-7.6,5.6c-0.2,0.1-0.2,0.3-0.2,0.6l2.9,9"/>
		<path class="st0" d="M314,123.4l-3.3,10.1c-0.1,0.2,0,0.4,0.2,0.6c0.2,0.1,0.4,0.1,0.6,0l8.6-6.2l8.6,6.2c0.1,0.1,0.2,0.1,0.3,0.1
			s0.2,0,0.3-0.1c0.2-0.1,0.2-0.4,0.2-0.6l-3.3-10.1l8.6-6.2c0.2-0.1,0.2-0.3,0.2-0.6s-0.3-0.3-0.5-0.3h-10.6l-3.3-10.1
			c-0.1-0.4-0.8-0.4-1,0l-3.3,10.1h-10.6c-0.2,0-0.4,0.1-0.5,0.3s0,0.4,0.2,0.6L314,123.4z M320.1,126.7c-0.1,0-0.2,0-0.3,0.1
			l-7.6,5.6l2.9-9c0.1-0.2,0-0.4-0.2-0.6l-7.6-5.6c0,0,9.4,0,9.4,0c0.2,0,0.4-0.1,0.5-0.3l2.9-9l2.9,9c0.1,0.2,0.3,0.3,0.5,0.3h9.4
			l-7.6,5.6c-0.2,0.1-0.2,0.3-0.2,0.6l2.9,9"/>
		<path class="st0" d="M394,123.4l-3.3,10.1c-0.1,0.2,0,0.4,0.2,0.6c0.2,0.1,0.4,0.1,0.6,0l8.6-6.2l8.6,6.2c0.1,0.1,0.2,0.1,0.3,0.1
			s0.2,0,0.3-0.1c0.2-0.1,0.2-0.4,0.2-0.6l-3.3-10.1l8.6-6.2c0.2-0.1,0.2-0.3,0.2-0.6s-0.3-0.3-0.5-0.3h-10.6l-3.3-10.1
			c-0.1-0.2-0.3-0.3-0.5-0.3s-0.4,0.1-0.5,0.3l-3.3,10.1h-10.6c-0.2,0-0.4,0.1-0.5,0.3s0,0.4,0.2,0.6L394,123.4z M399.8,126.8
			l-7.6,5.6l2.9-9c0.1-0.2,0-0.4-0.2-0.6l-7.6-5.6c0,0,9.4,0,9.4,0c0.2,0,0.4-0.1,0.5-0.3l2.9-9l2.9,9c0.1,0.2,0.3,0.3,0.5,0.3h9.4
			l-7.6,5.6c-0.2,0.1-0.2,0.3-0.2,0.6l2.9,9"/>
		<path class="st1" d="M474,123.4l-3.3,10.1c-0.1,0.2,0,0.4,0.2,0.6c0.2,0.1,0.4,0.1,0.6,0l8.6-6.2l8.6,6.2c0.1,0.1,0.2,0.1,0.3,0.1
			s0.2,0,0.3-0.1c0.2-0.1,0.2-0.4,0.2-0.6l-3.3-10.1l8.6-6.2c0.2-0.1,0.2-0.3,0.2-0.6s-0.3-0.3-0.5-0.3h-10.6l-3.3-10.1
			c-0.1-0.2-0.3-0.3-0.5-0.3s-0.4,0.1-0.5,0.3l-3.3,10.1h-10.6c-0.2,0-0.4,0.1-0.5,0.3s0,0.4,0.2,0.6L474,123.4z M476.6,117.3
			c0.2,0,0.4-0.1,0.5-0.3l2.9-9l2.9,9c0.1,0.2,0.3,0.3,0.5,0.3h9.4l-7.6,5.6c-0.2,0.1-0.2,0.3-0.2,0.6l2.9,9l-7.6-5.6
			c-0.2-0.1-0.4-0.1-0.6,0l-7.6,5.6l2.9-9c0.1-0.2,0-0.4-0.2-0.6l-7.6-5.6C467.2,117.3,476.6,117.3,476.6,117.3z"/>
		<path class="st0" d="M556.6,117.3c0.2,0,0.4-0.1,0.5-0.3l2.9-8.8v-2.2c-0.2,0-0.4,0.2-0.4,0.3l-3.3,10.1h-10.6
			c-0.2,0-0.4,0.1-0.5,0.3s0,0.4,0.2,0.6l8.6,6.2l-3.3,10.1c-0.1,0.2,0,0.4,0.2,0.6c0.2,0.1,0.4,0.1,0.6,0l8.5-6.2v-1.1
			c-0.1,0-0.2,0-0.2,0.1l-7.6,5.6l2.9-9c0.1-0.2,0-0.4-0.2-0.6"/>
		<path class="st1" d="M134.3,176.3h-10.6l-3.3-10.1c-0.1-0.4-0.8-0.4-0.9,0l-3.3,10.1h-10.6c-0.2,0-0.4,0.1-0.5,0.4s0,0.4,0.2,0.6
			l8.6,6.2l-3.3,10.1c-0.1,0.2,0,0.4,0.2,0.6c0.2,0.1,0.4,0.1,0.6,0l8.6-6.2l8.6,6.2c0.1,0.1,0.2,0.1,0.3,0.1s0.2,0,0.3-0.1
			c0.2-0.1,0.2-0.4,0.2-0.6l-3.3-10.1l8.6-6.2c0.2-0.1,0.2-0.4,0.2-0.6C134.7,176.4,134.6,176.3,134.3,176.3z M125.1,182.8
			c-0.2,0.1-0.2,0.4-0.2,0.6l2.9,9l-7.6-5.6c-0.2-0.1-0.4-0.1-0.6,0l-7.6,5.6l2.9-9c0.1-0.2,0-0.4-0.2-0.6l-7.6-5.6h9.4
			c0.2,0,0.4-0.1,0.5-0.4l2.9-9l2.9,9c0.1,0.2,0.3,0.4,0.5,0.4h9.4L125.1,182.8z"/>
		<path class="st0" d="M54.3,176.3H43.7l-3.3-10.1c-0.1-0.4-0.8-0.4-1,0l-3.3,10.1H25.6c-0.2,0-0.4,0.1-0.5,0.4s0,0.4,0.2,0.6
			l8.6,6.2l-3.3,10.1c-0.1,0.2,0,0.4,0.2,0.6c0.2,0.1,0.4,0.1,0.6,0l8.6-6.2l8.6,6.2c0.1,0.1,0.2,0.1,0.3,0.1s0.2,0,0.3-0.1
			c0.2-0.1,0.2-0.4,0.2-0.6L46,183.4l8.6-6.2c0.2-0.1,0.2-0.4,0.2-0.6C54.7,176.4,54.5,176.3,54.3,176.3z M45,183.4l2.9,9l-7.6-5.6
			c-0.2-0.1-0.4-0.1-0.6,0l-7.6,5.6l2.9-9c0.1-0.2,0-0.4-0.2-0.6l-7.6-5.6h9.4c0.2,0,0.4-0.1,0.5-0.4l2.9-9l2.9,9
			c0.1,0.2,0.3,0.4,0.5,0.4h9.4"/>
		<path class="st0" d="M214.3,176.3h-10.6l-3.3-10.1c-0.1-0.4-0.8-0.4-0.9,0l-3.3,10.1h-10.6c-0.2,0-0.4,0.1-0.5,0.4
			c-0.1,0.2,0,0.4,0.2,0.6l8.6,6.2l-3.3,10.1c-0.1,0.2,0,0.4,0.2,0.6c0.2,0.1,0.4,0.1,0.6,0l8.6-6.2l8.6,6.2
			c0.1,0.1,0.2,0.1,0.3,0.1s0.2,0,0.3-0.1c0.2-0.1,0.2-0.4,0.2-0.6l-3.3-10.1l8.6-6.2c0.2-0.1,0.2-0.4,0.2-0.6
			C214.7,176.4,214.6,176.3,214.3,176.3z M212.8,177.3l-7.7,5.6c-0.2,0.1-0.2,0.4-0.2,0.6l2.9,9l-7.6-5.6c-0.2-0.1-0.4-0.1-0.6,0
			l-7.6,5.6l2.9-9c0.1-0.2,0-0.4-0.2-0.6l-7.6-5.6h9.4c0.2,0,0.4-0.1,0.5-0.4l2.9-9l2.9,9c0.1,0.2,0.3,0.4,0.5,0.4"/>
		<path class="st0" d="M294.3,176.3h-10.6l-3.3-10.1c-0.1-0.4-0.8-0.4-1,0l-3.3,10.1h-10.6c-0.2,0-0.4,0.1-0.5,0.4s0,0.4,0.2,0.6
			l8.6,6.2l-3.3,10.1c-0.1,0.2,0,0.4,0.2,0.6c0.2,0.1,0.4,0.1,0.6,0l8.6-6.2l8.6,6.2c0.1,0.1,0.2,0.1,0.3,0.1s0.2,0,0.3-0.1
			c0.2-0.1,0.2-0.4,0.2-0.6l-3.3-10.1l8.6-6.2c0.2-0.1,0.2-0.4,0.2-0.6C294.7,176.4,294.5,176.3,294.3,176.3z M282.9,176.9
			c0.1,0.2,0.3,0.4,0.5,0.4h9.4l-7.7,5.6c-0.2,0.1-0.2,0.4-0.2,0.6l2.9,9l-7.6-5.6c-0.2-0.1-0.4-0.1-0.6,0l-7.6,5.6l2.9-9
			c0.1-0.2,0-0.4-0.2-0.6l-7.6-5.6h9.4c0.2,0,0.4-0.1,0.5-0.4"/>
		<path class="st0" d="M374.3,176.3h-10.6l-3.3-10.1c-0.1-0.4-0.8-0.4-1,0l-3.3,10.1h-10.6c-0.2,0-0.4,0.1-0.5,0.4s0,0.4,0.2,0.6
			l8.6,6.2l-3.3,10.1c-0.1,0.2,0,0.4,0.2,0.6c0.1,0.1,0.2,0.1,0.3,0.1s0.2,0,0.3-0.1l8.6-6.2l8.6,6.2c0.2,0.1,0.4,0.1,0.6,0
			c0.2-0.1,0.2-0.4,0.2-0.6l-3.3-10.1l8.6-6.2c0.2-0.1,0.2-0.4,0.2-0.6C374.7,176.4,374.5,176.3,374.3,176.3z M360.2,186.8
			c-0.1-0.1-0.2-0.1-0.3-0.1s-0.2,0-0.3,0.1l-7.6,5.6l2.9-9c0.1-0.2,0-0.4-0.2-0.6l-7.6-5.6h9.4c0.2,0,0.4-0.1,0.5-0.4l2.9-9l2.9,9
			c0.1,0.2,0.3,0.4,0.5,0.4h9.4l-7.7,5.6c-0.2,0.1-0.2,0.4-0.2,0.6"/>
		<path class="st0" d="M454.3,176.3h-10.6l-3.3-10.1c-0.1-0.4-0.8-0.4-1,0l-3.3,10.1h-10.6c-0.2,0-0.4,0.1-0.5,0.4s0,0.4,0.2,0.6
			l8.6,6.2l-3.3,10.1c-0.1,0.2,0,0.4,0.2,0.6c0.1,0.1,0.2,0.1,0.3,0.1s0.2,0,0.3-0.1l8.6-6.2l8.6,6.2c0.2,0.1,0.4,0.1,0.6,0
			c0.2-0.1,0.2-0.4,0.2-0.6l-3.3-10.1l8.6-6.2c0.2-0.1,0.2-0.4,0.2-0.6C454.7,176.4,454.5,176.3,454.3,176.3z M452.8,177.3l-7.7,5.6
			c-0.2,0.1-0.2,0.4-0.2,0.6l2.9,9l-7.6-5.6c-0.1-0.1-0.2-0.1-0.3-0.1s-0.2,0-0.3,0.1l-7.6,5.6l2.9-9c0.1-0.2,0-0.4-0.2-0.6
			l-7.6-5.6h9.4c0.2,0,0.4-0.1,0.5-0.4l2.9-9l2.9,9c0.1,0.2,0.3,0.4,0.5,0.4"/>
		<path class="st0" d="M534.3,176.3h-10.6l-3.3-10.1c-0.1-0.4-0.8-0.4-1,0l-3.3,10.1h-10.6c-0.2,0-0.4,0.1-0.5,0.4s0,0.4,0.2,0.6
			l8.6,6.2l-3.3,10.1c-0.1,0.2,0,0.4,0.2,0.6c0.1,0.1,0.2,0.1,0.3,0.1s0.2,0,0.3-0.1l8.6-6.2l8.6,6.2c0.2,0.1,0.4,0.1,0.6,0
			c0.2-0.1,0.2-0.4,0.2-0.6l-3.3-10.1l8.6-6.2c0.2-0.1,0.2-0.4,0.2-0.6C534.7,176.4,534.5,176.3,534.3,176.3z M527.9,192.4l-7.6-5.6
			c-0.1-0.1-0.2-0.1-0.3-0.1s-0.2,0-0.3,0.1l-7.6,5.6l2.9-9c0.1-0.2,0-0.4-0.2-0.6l-7.6-5.6h9.4c0.2,0,0.4-0.1,0.5-0.4l2.9-9l2.9,9
			c0.1,0.2,0.3,0.4,0.5,0.4h9.4l-7.7,5.6"/>
		<path class="st0" d="M73.9,243.4l-3.3,10.1c-0.1,0.2,0,0.4,0.2,0.6c0.1,0.1,0.2,0.1,0.3,0.1s0.2,0,0.3-0.1l8.6-6.2l8.6,6.2
			c0.2,0.1,0.4,0.1,0.6,0c0.2-0.1,0.2-0.4,0.2-0.6l-3.3-10.1l8.6-6.2c0.2-0.1,0.2-0.4,0.2-0.6c-0.1-0.2-0.3-0.4-0.5-0.4H83.8
			l-3.3-10.1c-0.1-0.4-0.8-0.4-0.9,0l-3.3,10.1H65.6c-0.2,0-0.4,0.1-0.5,0.4s0,0.4,0.2,0.6L73.9,243.4z M85.2,242.8
			c-0.2,0.1-0.2,0.4-0.2,0.6l2.9,9l-7.6-5.6c-0.2-0.1-0.4-0.1-0.6,0l-7.6,5.6l2.9-9c0.1-0.2,0-0.4-0.2-0.6l-7.6-5.6h9.4
			c0.2,0,0.4-0.1,0.5-0.4l2.9-9l2.9,9c0.1,0.2,0.3,0.4,0.5,0.4"/>
		<path class="st0" d="M5.2,242.8C5,243,5,243.2,5,243.4l2.9,9l-7.6-5.6c-0.1-0.1-0.2-0.1-0.3-0.1v1.1l0,0l8.6,6.3
			c0.2,0.1,0.4,0.1,0.6,0s0.2-0.4,0.2-0.6l-3.3-10.1l8.6-6.2c0.2-0.1,0.2-0.4,0.2-0.6c-0.1-0.2-0.3-0.4-0.5-0.4H3.8l-3.3-10.1
			c-0.1-0.2-0.3-0.3-0.5-0.3v2.1l0-0.1l2.9,9c0.1,0.2,0.3,0.4,0.5,0.4"/>
		<path class="st0" d="M153.9,243.4l-3.3,10.1c-0.1,0.2,0,0.4,0.2,0.6c0.1,0.1,0.2,0.1,0.3,0.1s0.2,0,0.3-0.1l8.6-6.2l8.6,6.2
			c0.2,0.1,0.4,0.1,0.6,0s0.2-0.4,0.2-0.6l-3.3-10.1l8.6-6.2c0.2-0.1,0.2-0.4,0.2-0.6c-0.1-0.2-0.3-0.4-0.5-0.4h-10.6l-3.3-10.1
			c-0.1-0.4-0.8-0.4-0.9,0l-3.3,10.1h-10.6c-0.2,0-0.4,0.1-0.5,0.4c-0.1,0.2,0,0.4,0.2,0.6L153.9,243.4z M160.3,246.8
			c-0.2-0.1-0.4-0.1-0.6,0l-7.6,5.6l2.9-9c0.1-0.2,0-0.4-0.2-0.6l-7.6-5.6h9.4c0.2,0,0.4-0.1,0.5-0.4l2.9-9l2.9,9
			c0.1,0.2,0.3,0.4,0.5,0.4h9.4l-7.6,5.6c-0.2,0.1-0.2,0.4-0.2,0.6"/>
		<path class="st0" d="M233.9,243.4l-3.3,10.1c-0.1,0.2,0,0.4,0.2,0.6c0.1,0.1,0.2,0.1,0.3,0.1s0.2,0,0.3-0.1l8.6-6.2l8.6,6.2
			c0.2,0.1,0.4,0.1,0.6,0s0.2-0.4,0.2-0.6l-3.3-10.1l8.6-6.2c0.2-0.1,0.2-0.4,0.2-0.6c-0.1-0.2-0.3-0.4-0.5-0.4h-10.6l-3.3-10.1
			c-0.1-0.4-0.8-0.4-0.9,0l-3.3,10.1h-10.6c-0.2,0-0.4,0.1-0.5,0.4c-0.1,0.2,0,0.4,0.2,0.6L233.9,243.4z M240.3,246.8
			c-0.2-0.1-0.4-0.1-0.6,0l-7.6,5.6l2.9-9c0.1-0.2,0-0.4-0.2-0.6l-7.6-5.6h9.4c0.2,0,0.4-0.1,0.5-0.4l2.9-9l2.9,9
			c0.1,0.2,0.3,0.4,0.5,0.4h9.4l-7.6,5.6c-0.2,0.1-0.2,0.4-0.2,0.6"/>
		<path class="st0" d="M313.9,243.4l-3.3,10.1c-0.1,0.2,0,0.4,0.2,0.6c0.1,0.1,0.2,0.1,0.3,0.1s0.2,0,0.3-0.1l8.6-6.2l8.6,6.2
			c0.2,0.1,0.4,0.1,0.6,0s0.2-0.4,0.2-0.6l-3.3-10.1l8.6-6.2c0.2-0.1,0.2-0.4,0.2-0.6c-0.1-0.2-0.3-0.4-0.5-0.4h-10.6l-3.3-10.1
			c-0.1-0.4-0.8-0.4-1,0l-3.3,10.1h-10.6c-0.2,0-0.4,0.1-0.5,0.4s0,0.4,0.2,0.6L313.9,243.4z M332.9,237.3l-7.6,5.6
			c-0.2,0.1-0.2,0.4-0.2,0.6l2.9,9l-7.6-5.6c-0.2-0.1-0.4-0.1-0.6,0l-7.6,5.6l2.9-9c0.1-0.2,0-0.4-0.2-0.6l-7.6-5.6h9.4
			c0.2,0,0.4-0.1,0.5-0.4l2.9-9l2.9,9"/>
		<path class="st0" d="M393.9,243.4l-3.3,10.1c-0.1,0.2,0,0.4,0.2,0.6c0.1,0.1,0.2,0.1,0.3,0.1s0.2,0,0.3-0.1l8.6-6.2l8.6,6.2
			c0.2,0.1,0.4,0.1,0.6,0c0.2-0.1,0.2-0.4,0.2-0.6l-3.3-10.1l8.6-6.2c0.2-0.1,0.2-0.4,0.2-0.6c-0.1-0.2-0.3-0.4-0.5-0.4h-10.6
			l-3.3-10.1c-0.1-0.4-0.8-0.4-1,0l-3.3,10.1h-10.6c-0.2,0-0.4,0.1-0.5,0.4s0,0.4,0.2,0.6L393.9,243.4z M405.2,242.8
			c-0.2,0.1-0.2,0.4-0.2,0.6l2.9,9l-7.6-5.6c-0.2-0.1-0.4-0.1-0.6,0l-7.6,5.6l2.9-9c0.1-0.2,0-0.4-0.2-0.6l-7.6-5.6h9.4
			c0.2,0,0.4-0.1,0.5-0.4l2.9-9l2.9,9c0.1,0.2,0.3,0.4,0.5,0.4"/>
		<path class="st0" d="M473.9,243.4l-3.3,10.1c-0.1,0.2,0,0.4,0.2,0.6c0.1,0.1,0.2,0.1,0.3,0.1s0.2,0,0.3-0.1l8.6-6.2l8.6,6.2
			c0.2,0.1,0.4,0.1,0.6,0c0.2-0.1,0.2-0.4,0.2-0.6l-3.3-10.1l8.6-6.2c0.2-0.1,0.2-0.4,0.2-0.6c-0.1-0.2-0.3-0.4-0.5-0.4h-10.6
			l-3.3-10.1c-0.1-0.4-0.8-0.4-1,0l-3.3,10.1h-10.6c-0.2,0-0.4,0.1-0.5,0.4s0,0.4,0.2,0.6L473.9,243.4z M483,236.9
			c0.1,0.2,0.3,0.4,0.5,0.4h9.4l-7.6,5.6c-0.2,0.1-0.2,0.4-0.2,0.6l2.9,9l-7.6-5.6c-0.2-0.1-0.4-0.1-0.6,0l-7.6,5.6l2.9-9
			c0.1-0.2,0-0.4-0.2-0.6l-7.6-5.6h9.4c0.2,0,0.4-0.1,0.5-0.4"/>
		<path class="st0" d="M545.6,236.3c-0.2,0-0.4,0.1-0.5,0.4s0,0.4,0.2,0.6l8.6,6.2l-3.3,10.1c-0.1,0.2,0,0.4,0.2,0.6
			c0.1,0.1,0.2,0.1,0.3,0.1s0.2,0,0.3-0.1l8.6-6.2v-1.1c-0.1,0-0.2,0-0.3,0.1l-7.6,5.6l2.9-9c0.1-0.2,0-0.4-0.2-0.6l-7.6-5.6h9.4
			c0.2,0,0.4-0.1,0.5-0.4l2.9-8.9v-2.1c-0.2,0-0.4,0.1-0.4,0.3"/>
		<path class="st0" d="M134.8,296.6c-0.1-0.2-0.3-0.4-0.5-0.4h-10.6l-3.3-10.1c-0.1-0.4-0.8-0.4-0.9,0l-3.3,10.1h-10.6
			c-0.2,0-0.4,0.1-0.5,0.4s0,0.4,0.2,0.6l8.6,6.2l-3.3,10.1c-0.1,0.2,0,0.4,0.2,0.6c0.2,0.1,0.4,0.1,0.6,0l8.6-6.2l8.6,6.2
			c0.1,0.1,0.2,0.1,0.3,0.1s0.2,0,0.3-0.1c0.2-0.1,0.2-0.4,0.2-0.6l-3.3-10.1l8.6-6.2C134.8,297.1,134.9,296.8,134.8,296.6z
			 M122.9,296.9c0.1,0.2,0.3,0.4,0.5,0.4h9.4l-7.7,5.5c-0.2,0.1-0.2,0.4-0.2,0.6l2.9,9l-7.6-5.5c-0.1-0.1-0.2-0.1-0.3-0.1
			s-0.2,0-0.3,0.1l-7.6,5.5l2.9-9c0.1-0.2,0-0.4-0.2-0.6l-7.6-5.5h9.4c0.2,0,0.4-0.1,0.5-0.4"/>
		<path class="st0" d="M54.8,296.6c-0.1-0.2-0.3-0.4-0.5-0.4H43.7l-3.3-10.1c-0.1-0.4-0.8-0.4-1,0l-3.3,10.1H25.6
			c-0.2,0-0.4,0.1-0.5,0.4s0,0.4,0.2,0.6l8.6,6.2l-3.3,10.1c-0.1,0.2,0,0.4,0.2,0.6c0.2,0.1,0.4,0.1,0.6,0l8.6-6.2l8.6,6.2
			c0.1,0.1,0.2,0.1,0.3,0.1s0.2,0,0.3-0.1c0.2-0.1,0.2-0.4,0.2-0.6L46,303.4l8.6-6.2C54.8,297.1,54.8,296.8,54.8,296.6z M44.9,303.4
			l2.9,9l-7.6-5.5c-0.1-0.1-0.2-0.1-0.3-0.1s-0.2,0-0.3,0.1l-7.7,5.5l2.9-9c0.1-0.2,0-0.4-0.2-0.6l-7.6-5.5h9.4
			c0.2,0,0.4-0.1,0.5-0.4l2.9-9l2.9,9c0.1,0.2,0.3,0.4,0.5,0.4h9.4"/>
		<path class="st0" d="M214.8,296.6c-0.1-0.2-0.3-0.4-0.5-0.4h-10.6l-3.3-10.1c-0.1-0.4-0.8-0.4-0.9,0l-3.3,10.1h-10.6
			c-0.2,0-0.4,0.1-0.5,0.4c-0.1,0.2,0,0.4,0.2,0.6l8.6,6.2l-3.3,10.1c-0.1,0.2,0,0.4,0.2,0.6c0.2,0.1,0.4,0.1,0.6,0l8.6-6.2l8.6,6.2
			c0.1,0.1,0.2,0.1,0.3,0.1s0.2,0,0.3-0.1c0.2-0.1,0.2-0.4,0.2-0.6l-3.3-10.1l8.6-6.2C214.8,297.1,214.9,296.8,214.8,296.6z
			 M200,288l2.9,9c0.1,0.2,0.3,0.4,0.5,0.4h9.4l-7.7,5.5c-0.2,0.1-0.2,0.4-0.2,0.6l2.9,9l-7.6-5.5c-0.1-0.1-0.2-0.1-0.3-0.1
			s-0.2,0-0.3,0.1l-7.6,5.5l2.9-9c0.1-0.2,0-0.4-0.2-0.6l-7.6-5.5h9.4"/>
		<path class="st0" d="M294.8,296.6c-0.1-0.2-0.3-0.4-0.5-0.4h-10.6l-3.3-10.1c-0.1-0.4-0.8-0.4-1,0l-3.3,10.1h-10.6
			c-0.2,0-0.4,0.1-0.5,0.4s0,0.4,0.2,0.6l8.6,6.2l-3.3,10.1c-0.1,0.2,0,0.4,0.2,0.6c0.2,0.1,0.4,0.1,0.6,0l8.6-6.2l8.6,6.2
			c0.1,0.1,0.2,0.1,0.3,0.1s0.2,0,0.3-0.1c0.2-0.1,0.2-0.4,0.2-0.6l-3.3-10.1l8.6-6.2C294.8,297.1,294.9,296.8,294.8,296.6z
			 M285.1,302.8c-0.2,0.1-0.2,0.4-0.2,0.6l2.9,9l-7.6-5.5c-0.1-0.1-0.2-0.1-0.3-0.1s-0.2,0-0.3,0.1l-7.6,5.5l2.9-9
			c0.1-0.2,0-0.4-0.2-0.6l-7.6-5.5h9.4c0.2,0,0.4-0.1,0.5-0.4l2.9-9l2.9,9c0.1,0.2,0.3,0.4,0.5,0.4"/>
		<path class="st0" d="M374.8,296.6c-0.1-0.2-0.3-0.4-0.5-0.4h-10.6l-3.3-10.1c-0.1-0.4-0.8-0.4-1,0l-3.3,10.1h-10.6
			c-0.2,0-0.4,0.1-0.5,0.4s0,0.4,0.2,0.6l8.6,6.2l-3.3,10.1c-0.1,0.2,0,0.4,0.2,0.6c0.1,0.1,0.2,0.1,0.3,0.1s0.2,0,0.3-0.1l8.6-6.2
			l8.6,6.2c0.2,0.1,0.4,0.1,0.6,0c0.2-0.1,0.2-0.4,0.2-0.6l-3.3-10.1l8.6-6.2C374.8,297.1,374.9,296.8,374.8,296.6z M372.8,297.3
			l-7.7,5.5c-0.2,0.1-0.2,0.4-0.2,0.6l2.9,9l-7.6-5.5c-0.2-0.1-0.4-0.1-0.6,0l-7.6,5.5l2.9-9c0.1-0.2,0-0.4-0.2-0.6l-7.6-5.5h9.4
			c0.2,0,0.4-0.1,0.5-0.4l2.9-9l2.9,9"/>
		<path class="st0" d="M454.8,296.6c-0.1-0.2-0.3-0.4-0.5-0.4h-10.6l-3.3-10.1c-0.1-0.4-0.8-0.4-1,0l-3.3,10.1h-10.6
			c-0.2,0-0.4,0.1-0.5,0.4s0,0.4,0.2,0.6l8.6,6.2l-3.3,10.1c-0.1,0.2,0,0.4,0.2,0.6c0.2,0.1,0.4,0.1,0.6,0l8.6-6.2l8.6,6.2
			c0.1,0.1,0.2,0.1,0.3,0.1s0.2,0,0.3-0.1c0.2-0.1,0.2-0.4,0.2-0.6l-3.3-10.1l8.6-6.2C454.8,297.1,454.9,296.8,454.8,296.6z
			 M445.1,302.8c-0.2,0.1-0.2,0.4-0.2,0.6l2.9,9l-7.6-5.5c-0.2-0.1-0.4-0.1-0.6,0l-7.6,5.5l2.9-9c0.1-0.2,0-0.4-0.2-0.6l-7.6-5.5
			h9.4c0.2,0,0.4-0.1,0.5-0.4l2.9-9l2.9,9c0.1,0.2,0.3,0.4,0.5,0.4"/>
		<path class="st1" d="M534.8,296.6c-0.1-0.2-0.3-0.4-0.5-0.4h-10.6l-3.3-10.1c-0.1-0.4-0.8-0.4-1,0l-3.3,10.1h-10.6
			c-0.2,0-0.4,0.1-0.5,0.4s0,0.4,0.2,0.6l8.6,6.2l-3.3,10.1c-0.1,0.2,0,0.4,0.2,0.6c0.2,0.1,0.4,0.1,0.6,0l8.6-6.2l8.6,6.2
			c0.1,0.1,0.2,0.1,0.3,0.1s0.2,0,0.3-0.1c0.2-0.1,0.2-0.4,0.2-0.6l-3.3-10.1l8.6-6.2C534.8,297.1,534.8,296.8,534.8,296.6z
			 M525.1,302.8c-0.2,0.1-0.2,0.4-0.2,0.6l2.9,9l-7.6-5.5c-0.2-0.1-0.4-0.1-0.6,0l-7.6,5.5l2.9-9c0.1-0.2,0-0.4-0.2-0.6l-7.6-5.5
			h9.4c0.2,0,0.4-0.1,0.5-0.4l2.9-9l2.9,9c0.1,0.2,0.3,0.4,0.5,0.4h9.4L525.1,302.8z"/>
		<path class="st0" d="M94.4,356.3H83.8l-3.3-10.1c-0.1-0.4-0.8-0.4-0.9,0l-3.3,10.1H65.7c-0.2,0-0.4,0.1-0.5,0.4s0,0.4,0.2,0.6
			l8.6,6.2l-3.3,10.1c-0.1,0.2,0,0.4,0.2,0.6c0.2,0.1,0.4,0.1,0.6,0l8.6-6.2l8.6,6.2c0.1,0.1,0.2,0.1,0.3,0.1s0.2,0,0.3-0.1
			c0.2-0.1,0.2-0.4,0.2-0.6l-3.3-10.1l8.6-6.2c0.2-0.1,0.2-0.4,0.2-0.6S94.7,356.3,94.4,356.3z M80.4,366.8c-0.2-0.1-0.4-0.1-0.6,0
			l-7.6,5.5l2.9-9c0.1-0.2,0-0.4-0.2-0.6l-7.6-5.5h9.4c0.2,0,0.4-0.1,0.5-0.4l2.9-9l2.9,9c0.1,0.2,0.3,0.4,0.5,0.4h9.4l-7.7,5.5
			c-0.2,0.1-0.2,0.4-0.2,0.6"/>
		<path class="st0" d="M5.3,362.8c-0.2,0.1-0.2,0.4-0.2,0.6l2.9,9l-7.6-5.5c-0.1-0.1-0.2-0.1-0.4-0.1v1.1l0.1,0l8.6,6.2
			c0.1,0.1,0.2,0.1,0.3,0.1s0.2,0,0.3-0.1c0.2-0.1,0.2-0.4,0.2-0.6l-3.3-10.1l8.6-6.2c0.2-0.1,0.2-0.4,0.2-0.6s-0.3-0.4-0.5-0.4H3.8
			l-3.3-10.1c-0.1-0.2-0.3-0.3-0.5-0.3v2.3l0.1-0.2l2.9,9c0.1,0.2,0.3,0.4,0.5,0.4"/>
		<path class="st0" d="M174.4,356.3h-10.6l-3.3-10.1c-0.1-0.4-0.8-0.4-0.9,0l-3.3,10.1h-10.6c-0.2,0-0.4,0.1-0.5,0.4s0,0.4,0.2,0.6
			l8.6,6.2l-3.3,10.1c-0.1,0.2,0,0.4,0.2,0.6c0.2,0.1,0.4,0.1,0.6,0l8.6-6.2l8.6,6.2c0.1,0.1,0.2,0.1,0.3,0.1s0.2,0,0.3-0.1
			c0.2-0.1,0.2-0.4,0.2-0.6l-3.3-10.1l8.6-6.2c0.2-0.1,0.2-0.4,0.2-0.6S174.7,356.3,174.4,356.3z M163.5,357.3h9.4l-7.7,5.5
			c-0.2,0.1-0.2,0.4-0.2,0.6l2.9,9l-7.6-5.5c-0.2-0.1-0.4-0.1-0.6,0l-7.6,5.5l2.9-9c0.1-0.2,0-0.4-0.2-0.6l-7.6-5.5h9.4
			c0.2,0,0.4-0.1,0.5-0.4l2.9-9"/>
		<path class="st0" d="M254.4,356.3h-10.6l-3.3-10.1c-0.1-0.4-0.8-0.4-0.9,0l-3.3,10.1h-10.6c-0.2,0-0.4,0.1-0.5,0.4s0,0.4,0.2,0.6
			l8.6,6.2l-3.3,10.1c-0.1,0.2,0,0.4,0.2,0.6c0.2,0.1,0.4,0.1,0.6,0l8.6-6.2l8.6,6.2c0.1,0.1,0.2,0.1,0.3,0.1s0.2,0,0.3-0.1
			c0.2-0.1,0.2-0.4,0.2-0.6l-3.3-10.1l8.6-6.2c0.2-0.1,0.2-0.4,0.2-0.6S254.7,356.3,254.4,356.3z M243,356.9
			c0.1,0.2,0.3,0.4,0.5,0.4h9.4l-7.7,5.5c-0.2,0.1-0.2,0.4-0.2,0.6l2.9,9l-7.6-5.5c-0.2-0.1-0.4-0.1-0.6,0l-7.6,5.5l2.9-9
			c0.1-0.2,0-0.4-0.2-0.6l-7.6-5.5h9.4c0.2,0,0.4-0.1,0.5-0.4"/>
		<path class="st0" d="M334.4,356.3h-10.6l-3.3-10.1c-0.1-0.4-0.8-0.4-1,0l-3.3,10.1h-10.6c-0.2,0-0.4,0.1-0.5,0.4s0,0.4,0.2,0.6
			l8.6,6.2l-3.3,10.1c-0.1,0.2,0,0.4,0.2,0.6c0.2,0.1,0.4,0.1,0.6,0l8.6-6.2l8.6,6.2c0.1,0.1,0.2,0.1,0.3,0.1s0.2,0,0.3-0.1
			c0.2-0.1,0.2-0.4,0.2-0.6l-3.3-10.1l8.6-6.2c0.2-0.1,0.2-0.4,0.2-0.6S334.7,356.3,334.4,356.3z M320.4,366.8
			c-0.2-0.1-0.4-0.1-0.6,0l-7.6,5.5l2.9-9c0.1-0.2,0-0.4-0.2-0.6l-7.6-5.5h9.4c0.2,0,0.4-0.1,0.5-0.4l2.9-9l2.9,9
			c0.1,0.2,0.3,0.4,0.5,0.4h9.4l-7.7,5.5c-0.2,0.1-0.2,0.4-0.2,0.6"/>
		<path class="st0" d="M414.4,356.3h-10.6l-3.3-10.1c-0.1-0.4-0.8-0.4-1,0l-3.3,10.1h-10.6c-0.2,0-0.4,0.1-0.5,0.4s0,0.4,0.2,0.6
			l8.6,6.2l-3.3,10.1c-0.1,0.2,0,0.4,0.2,0.6c0.2,0.1,0.4,0.1,0.6,0l8.6-6.2l8.6,6.2c0.1,0.1,0.2,0.1,0.3,0.1s0.2,0,0.3-0.1
			c0.2-0.1,0.2-0.4,0.2-0.6l-3.3-10.1l8.6-6.2c0.2-0.1,0.2-0.4,0.2-0.6C414.9,356.4,414.7,356.3,414.4,356.3z M400.1,348l2.9,9
			c0.1,0.2,0.3,0.4,0.5,0.4h9.4l-7.7,5.5c-0.2,0.1-0.2,0.4-0.2,0.6l2.9,9l-7.6-5.5c-0.1-0.1-0.2-0.1-0.3-0.1s-0.2,0-0.3,0.1
			l-7.6,5.5l2.9-9c0.1-0.2,0-0.4-0.2-0.6l-7.6-5.5h9.4"/>
		<path class="st0" d="M494.4,356.3h-10.6l-3.3-10.1c-0.1-0.4-0.8-0.4-1,0l-3.3,10.1h-10.6c-0.2,0-0.4,0.1-0.5,0.4s0,0.4,0.2,0.6
			l8.6,6.2l-3.3,10.1c-0.1,0.2,0,0.4,0.2,0.6c0.2,0.1,0.4,0.1,0.6,0l8.6-6.2l8.6,6.2c0.1,0.1,0.2,0.1,0.3,0.1s0.2,0,0.3-0.1
			c0.2-0.1,0.2-0.4,0.2-0.6l-3.3-10.1l8.6-6.2c0.2-0.1,0.2-0.4,0.2-0.6C494.9,356.4,494.7,356.3,494.4,356.3z M475.1,363.4
			c0.1-0.2,0-0.4-0.2-0.6l-7.6-5.5h9.4c0.2,0,0.4-0.1,0.5-0.4l2.9-9l2.9,9c0.1,0.2,0.3,0.4,0.5,0.4h9.4l-7.7,5.5
			c-0.2,0.1-0.2,0.4-0.2,0.6 M480.4,366.8c-0.1-0.1-0.2-0.1-0.3-0.1s-0.2,0-0.3,0.1"/>
		<path class="st0" d="M545.7,356.3c-0.2,0-0.4,0.1-0.5,0.4s0,0.4,0.2,0.6l8.6,6.2l-3.3,10.1c-0.1,0.2,0,0.4,0.2,0.6
			c0.2,0.1,0.4,0.1,0.6,0l8.5-6.2v-1.1c-0.1,0-0.2,0-0.2,0.1l-7.6,5.5l2.9-9c0.1-0.2,0-0.4-0.2-0.6l-7.6-5.5h9.4
			c0.2,0,0.4-0.1,0.5-0.4l2.8-8.8v-2.3c-0.2,0-0.3,0.1-0.4,0.3"/>
		<path class="st0" d="M134.4,416.3h-10.6l-3.3-10.1c-0.1-0.4-0.8-0.4-0.9,0l-3.3,10.1h-10.6c-0.2,0-0.4,0.1-0.5,0.4s0,0.4,0.2,0.6
			l8.6,6.2l-3.3,10.1c-0.1,0.2,0,0.4,0.2,0.6c0.1,0.1,0.2,0.1,0.3,0.1s0.2,0,0.3-0.1l8.6-6.2l8.6,6.2c0.2,0.1,0.4,0.1,0.6,0
			s0.2-0.4,0.2-0.6l-3.3-10.1l8.6-6.2c0.2-0.1,0.2-0.4,0.2-0.6S134.6,416.3,134.4,416.3z M127.9,432.4l-7.6-5.5
			c-0.1-0.1-0.2-0.1-0.3-0.1s-0.2,0-0.3,0.1l-7.6,5.5l2.9-9c0.1-0.2,0-0.4-0.2-0.6l-7.6-5.5h9.4c0.2,0,0.4-0.1,0.5-0.4l2.9-9l2.9,9
			c0.1,0.2,0.3,0.4,0.5,0.4h9.4l-7.7,5.5c-0.2,0.1-0.2,0.4-0.2,0.6"/>
		<path class="st1" d="M54.3,416.3H43.7l-3.3-10.1c-0.1-0.4-0.8-0.4-1,0l-3.3,10.1H25.6c-0.2,0-0.4,0.1-0.5,0.4s0,0.4,0.2,0.6
			l8.6,6.2l-3.3,10.1c-0.1,0.2,0,0.4,0.2,0.6c0.1,0.1,0.2,0.1,0.3,0.1s0.2,0,0.3-0.1l8.6-6.2l8.6,6.2c0.2,0.1,0.4,0.1,0.6,0
			s0.2-0.4,0.2-0.6L46,423.4l8.6-6.2c0.2-0.1,0.2-0.4,0.2-0.6S54.6,416.3,54.3,416.3z M45.2,422.8c-0.2,0.1-0.2,0.4-0.2,0.6l2.9,9
			l-7.6-5.5c-0.1-0.1-0.2-0.1-0.3-0.1s-0.2,0-0.3,0.1l-7.6,5.5l2.9-9c0.1-0.2,0-0.4-0.2-0.6l-7.6-5.5h9.4c0.2,0,0.4-0.1,0.5-0.4
			l2.9-9l2.9,9c0.1,0.2,0.3,0.4,0.5,0.4h9.4L45.2,422.8z"/>
		<path class="st0" d="M214.4,416.3h-10.6l-3.3-10.1c-0.1-0.4-0.8-0.4-0.9,0l-3.3,10.1h-10.6c-0.2,0-0.4,0.1-0.5,0.4s0,0.4,0.2,0.6
			l8.6,6.2l-3.3,10.1c-0.1,0.2,0,0.4,0.2,0.6c0.1,0.1,0.2,0.1,0.3,0.1s0.2,0,0.3-0.1l8.6-6.2l8.6,6.2c0.2,0.1,0.4,0.1,0.6,0
			s0.2-0.4,0.2-0.6l-3.3-10.1l8.6-6.2c0.2-0.1,0.2-0.4,0.2-0.6S214.6,416.3,214.4,416.3z"/>
		<path class="st1" d="M294.4,416.3h-10.6l-3.3-10.1c-0.1-0.4-0.8-0.4-1,0l-3.3,10.1h-10.6c-0.2,0-0.4,0.1-0.5,0.4s0,0.4,0.2,0.6
			l8.6,6.2l-3.3,10.1c-0.1,0.2,0,0.4,0.2,0.6c0.1,0.1,0.2,0.1,0.3,0.1s0.2,0,0.3-0.1l8.6-6.2l8.6,6.2c0.2,0.1,0.4,0.1,0.6,0
			s0.2-0.4,0.2-0.6l-3.3-10.1l8.6-6.2c0.2-0.1,0.2-0.4,0.2-0.6S294.6,416.3,294.4,416.3z M285.2,422.8c-0.2,0.1-0.2,0.4-0.2,0.6
			l2.9,9l-7.6-5.5c-0.1-0.1-0.2-0.1-0.3-0.1s-0.2,0-0.3,0.1l-7.6,5.5l2.9-9c0.1-0.2,0-0.4-0.2-0.6l-7.6-5.5h9.4
			c0.2,0,0.4-0.1,0.5-0.4l2.9-9l2.9,9c0.1,0.2,0.3,0.4,0.5,0.4h9.4L285.2,422.8z"/>
		<path class="st0" d="M374.4,416.3h-10.6l-3.3-10.1c-0.1-0.4-0.8-0.4-1,0l-3.3,10.1h-10.6c-0.2,0-0.4,0.1-0.5,0.4s0,0.4,0.2,0.6
			l8.6,6.2l-3.3,10.1c-0.1,0.2,0,0.4,0.2,0.6c0.2,0.1,0.4,0.1,0.6,0l8.6-6.2l8.6,6.2c0.1,0.1,0.2,0.1,0.3,0.1s0.2,0,0.3-0.1
			c0.2-0.1,0.2-0.4,0.2-0.6l-3.3-10.1l8.6-6.2c0.2-0.1,0.2-0.4,0.2-0.6C374.8,416.4,374.6,416.3,374.4,416.3z M365.2,422.8
			c-0.2,0.1-0.2,0.4-0.2,0.6l2.9,9l-7.6-5.5c-0.1-0.1-0.2-0.1-0.3-0.1s-0.2,0-0.3,0.1l-7.6,5.5l2.9-9c0.1-0.2,0-0.4-0.2-0.6
			l-7.6-5.5h9.4c0.2,0,0.4-0.1,0.5-0.4l2.9-9l2.9,9c0.1,0.2,0.3,0.4,0.5,0.4"/>
		<path class="st0" d="M454.4,416.3h-10.6l-3.3-10.1c-0.1-0.4-0.8-0.4-1,0l-3.3,10.1h-10.6c-0.2,0-0.4,0.1-0.5,0.4s0,0.4,0.2,0.6
			l8.6,6.2l-3.3,10.1c-0.1,0.2,0,0.4,0.2,0.6c0.2,0.1,0.4,0.1,0.6,0l8.6-6.2l8.6,6.2c0.1,0.1,0.2,0.1,0.3,0.1s0.2,0,0.3-0.1
			c0.2-0.1,0.2-0.4,0.2-0.6l-3.3-10.1l8.6-6.2c0.2-0.1,0.2-0.4,0.2-0.6C454.8,416.4,454.6,416.3,454.4,416.3z M445,423.4l2.9,9
			l-7.6-5.5c-0.1-0.1-0.2-0.1-0.3-0.1s-0.2,0-0.3,0.1l-7.6,5.5l2.9-9c0.1-0.2,0-0.4-0.2-0.6l-7.6-5.5h9.4c0.2,0,0.4-0.1,0.5-0.4
			l2.9-9l2.9,9c0.1,0.2,0.3,0.4,0.5,0.4h9.4"/>
		<path class="st1" d="M534.3,416.3h-10.6l-3.3-10.1c-0.1-0.4-0.8-0.4-1,0l-3.3,10.1h-10.6c-0.2,0-0.4,0.1-0.5,0.4s0,0.4,0.2,0.6
			l8.6,6.2l-3.3,10.1c-0.1,0.2,0,0.4,0.2,0.6c0.2,0.1,0.4,0.1,0.6,0l8.6-6.2l8.6,6.2c0.1,0.1,0.2,0.1,0.3,0.1s0.2,0,0.3-0.1
			c0.2-0.1,0.2-0.4,0.2-0.6l-3.3-10.1l8.6-6.2c0.2-0.1,0.2-0.4,0.2-0.6C534.8,416.4,534.6,416.3,534.3,416.3z M523.4,417.3h9.4
			l-7.7,5.5c-0.2,0.1-0.2,0.4-0.2,0.6l2.9,9l-7.6-5.5c-0.1-0.1-0.2-0.1-0.3-0.1s-0.2,0-0.3,0.1l-7.6,5.5l2.9-9
			c0.1-0.2,0-0.4-0.2-0.6l-7.6-5.5h9.4c0.2,0,0.4-0.1,0.5-0.4l2.9-9"/>
		<path class="st0" d="M94.4,476.3H83.8l-3.3-10.1c-0.1-0.4-0.8-0.4-0.9,0l-3.3,10.1H65.6c-0.2,0-0.4,0.1-0.5,0.4s0,0.4,0.2,0.6
			l8.6,6.2l-3.3,10.1c-0.1,0.2,0,0.4,0.2,0.6c0.2,0.1,0.4,0.1,0.6,0l8.6-6.2l8.6,6.2c0.1,0.1,0.2,0.1,0.3,0.1s0.2,0,0.3-0.1
			c0.2-0.1,0.2-0.4,0.2-0.6l-3.3-10.1l8.6-6.2c0.2-0.1,0.2-0.4,0.2-0.6S94.6,476.3,94.4,476.3z M92.9,477.3l-7.7,5.5
			c-0.2,0.1-0.2,0.4-0.2,0.6l2.9,9l-7.6-5.5c-0.2-0.1-0.4-0.1-0.6,0l-7.6,5.5l2.9-9c0.1-0.2,0-0.4-0.2-0.6l-7.6-5.5h9.4
			c0.2,0,0.4-0.1,0.5-0.4l2.9-9l2.9,9c0.1,0.2,0.3,0.4,0.5,0.4"/>
		<path class="st0" d="M5.2,482.8C5,483,5,483.2,5,483.4l2.9,9l-7.6-5.5c-0.1-0.1-0.2-0.1-0.3-0.1v1.1l0,0l8.6,6.2
			c0.1,0.1,0.2,0.1,0.3,0.1s0.2,0,0.3-0.1c0.2-0.1,0.2-0.4,0.2-0.6l-3.3-10.1l8.6-6.2c0.2-0.1,0.2-0.4,0.2-0.6s-0.3-0.4-0.5-0.4H3.8
			l-3.3-10.1c-0.1-0.2-0.3-0.3-0.5-0.3v2.1l0-0.1l2.9,9c0.1,0.2,0.3,0.4,0.5,0.4"/>
		<path class="st1" d="M174.4,476.3h-10.6l-3.3-10.1c-0.1-0.4-0.8-0.4-0.9,0l-3.3,10.1h-10.6c-0.2,0-0.4,0.1-0.5,0.4s0,0.4,0.2,0.6
			l8.6,6.2l-3.3,10.1c-0.1,0.2,0,0.4,0.2,0.6c0.2,0.1,0.4,0.1,0.6,0l8.6-6.2l8.6,6.2c0.1,0.1,0.2,0.1,0.3,0.1s0.2,0,0.3-0.1
			c0.2-0.1,0.2-0.4,0.2-0.6l-3.3-10.1l8.6-6.2c0.2-0.1,0.2-0.4,0.2-0.6S174.6,476.3,174.4,476.3z M165.2,482.8
			c-0.2,0.1-0.2,0.4-0.2,0.6l2.9,9l-7.6-5.5c-0.2-0.1-0.4-0.1-0.6,0l-7.6,5.5l2.9-9c0.1-0.2,0-0.4-0.2-0.6l-7.6-5.5h9.4
			c0.2,0,0.4-0.1,0.5-0.4l2.9-9l2.9,9c0.1,0.2,0.3,0.4,0.5,0.4h9.4L165.2,482.8z"/>
		<path class="st0" d="M254.4,476.3h-10.6l-3.3-10.1c-0.1-0.4-0.8-0.4-0.9,0l-3.3,10.1h-10.6c-0.2,0-0.4,0.1-0.5,0.4s0,0.4,0.2,0.6
			l8.6,6.2l-3.3,10.1c-0.1,0.2,0,0.4,0.2,0.6c0.2,0.1,0.4,0.1,0.6,0l8.6-6.2l8.6,6.2c0.1,0.1,0.2,0.1,0.3,0.1s0.2,0,0.3-0.1
			c0.2-0.1,0.2-0.4,0.2-0.6l-3.3-10.1l8.6-6.2c0.2-0.1,0.2-0.4,0.2-0.6S254.6,476.3,254.4,476.3z M245,483.4l2.9,9l-7.6-5.5
			c-0.2-0.1-0.4-0.1-0.6,0l-7.6,5.5l2.9-9c0.1-0.2,0-0.4-0.2-0.6l-7.6-5.5h9.4c0.2,0,0.4-0.1,0.5-0.4l2.9-9l2.9,9
			c0.1,0.2,0.3,0.4,0.5,0.4h9.4"/>
		<path class="st0" d="M334.4,476.3h-10.6l-3.3-10.1c-0.1-0.4-0.8-0.4-1,0l-3.3,10.1h-10.6c-0.2,0-0.4,0.1-0.5,0.4s0,0.4,0.2,0.6
			l8.6,6.2l-3.3,10.1c-0.1,0.2,0,0.4,0.2,0.6c0.2,0.1,0.4,0.1,0.6,0l8.6-6.2l8.6,6.2c0.1,0.1,0.2,0.1,0.3,0.1s0.2,0,0.3-0.1
			c0.2-0.1,0.2-0.4,0.2-0.6l-3.3-10.1l8.6-6.2c0.2-0.1,0.2-0.4,0.2-0.6S334.6,476.3,334.4,476.3z M332.9,477.3l-7.7,5.5
			c-0.2,0.1-0.2,0.4-0.2,0.6l2.9,9l-7.6-5.5c-0.2-0.1-0.4-0.1-0.6,0l-7.6,5.5l2.9-9c0.1-0.2,0-0.4-0.2-0.6l-7.6-5.5h9.4
			c0.2,0,0.4-0.1,0.5-0.4l2.9-9l2.9,9"/>
		<path class="st1" d="M414.4,476.3h-10.6l-3.3-10.1c-0.1-0.4-0.8-0.4-1,0l-3.3,10.1h-10.6c-0.2,0-0.4,0.1-0.5,0.4s0,0.4,0.2,0.6
			l8.6,6.2l-3.3,10.1c-0.1,0.2,0,0.4,0.2,0.6c0.1,0.1,0.2,0.1,0.3,0.1s0.2,0,0.3-0.1l8.6-6.2l8.6,6.2c0.2,0.1,0.4,0.1,0.6,0
			c0.2-0.1,0.2-0.4,0.2-0.6l-3.3-10.1l8.6-6.2c0.2-0.1,0.2-0.4,0.2-0.6C414.8,476.4,414.6,476.3,414.4,476.3z M405.2,482.8
			c-0.2,0.1-0.2,0.4-0.2,0.6l2.9,9l-7.6-5.5c-0.2-0.1-0.4-0.1-0.6,0l-7.6,5.5l2.9-9c0.1-0.2,0-0.4-0.2-0.6l-7.6-5.5h9.4
			c0.2,0,0.4-0.1,0.5-0.4l2.9-9l2.9,9c0.1,0.2,0.3,0.4,0.5,0.4h9.4L405.2,482.8z"/>
		<path class="st0" d="M494.4,476.3h-10.6l-3.3-10.1c-0.1-0.4-0.8-0.4-1,0l-3.3,10.1h-10.6c-0.2,0-0.4,0.1-0.5,0.4s0,0.4,0.2,0.6
			l8.6,6.2l-3.3,10.1c-0.1,0.2,0,0.4,0.2,0.6c0.1,0.1,0.2,0.1,0.3,0.1s0.2,0,0.3-0.1l8.6-6.2l8.6,6.2c0.2,0.1,0.4,0.1,0.6,0
			c0.2-0.1,0.2-0.4,0.2-0.6l-3.3-10.1l8.6-6.2c0.2-0.1,0.2-0.4,0.2-0.6C494.8,476.4,494.6,476.3,494.4,476.3z M479.7,486.8l-7.6,5.5
			l2.9-9c0.1-0.2,0-0.4-0.2-0.6l-7.6-5.5h9.4c0.2,0,0.4-0.1,0.5-0.4l2.9-9l2.9,9c0.1,0.2,0.3,0.4,0.5,0.4h9.4l-7.7,5.5
			c-0.2,0.1-0.2,0.4-0.2,0.6l2.9,9"/>
		<path class="st0" d="M557.1,476.9l2.9-8.9v-2.1c-0.2,0-0.4,0.1-0.4,0.3l-3.3,10.1h-10.6c-0.2,0-0.4,0.1-0.5,0.4s0,0.4,0.2,0.6
			l8.6,6.2l-3.3,10.1c-0.1,0.2,0,0.4,0.2,0.6c0.1,0.1,0.2,0.1,0.3,0.1s0.2,0,0.3-0.1l8.6-6.2v-1.1c-0.1,0-0.2,0-0.3,0.1l-7.6,5.5
			l2.9-9c0.1-0.2,0-0.4-0.2-0.6l-7.6-5.5"/>
		<path class="st0" d="M134.3,536.3h-10.6l-3.3-10.1c-0.1-0.4-0.8-0.4-0.9,0l-3.3,10.1h-10.6c-0.2,0-0.4,0.1-0.5,0.3s0,0.4,0.2,0.6
			l8.6,6.2l-3.3,10.1c-0.1,0.2,0,0.4,0.2,0.6c0.1,0.1,0.2,0.1,0.3,0.1s0.2,0,0.3-0.1l8.6-6.2l8.6,6.2c0.2,0.1,0.4,0.1,0.6,0
			s0.2-0.3,0.2-0.6l-3.3-10.1l8.6-6.2c0.2-0.1,0.2-0.3,0.2-0.6S134.5,536.3,134.3,536.3z M125.1,542.8c-0.2,0.1-0.2,0.3-0.2,0.6
			l2.9,9l-7.6-5.5c-0.1-0.1-0.2-0.1-0.3-0.1s-0.2,0-0.3,0.1l-7.6,5.5l2.9-9c0.1-0.2,0-0.4-0.2-0.6l-7.6-5.5h9.4
			c0.2,0,0.4-0.1,0.5-0.3l2.9-9l2.9,9c0.1,0.2,0.3,0.3,0.5,0.3"/>
		<path class="st0" d="M54.3,536.3H43.7l-3.3-10.1c-0.1-0.4-0.8-0.4-1,0l-3.3,10.1H25.6c-0.2,0-0.4,0.1-0.5,0.3s0,0.4,0.2,0.6
			l8.6,6.2l-3.3,10.1c-0.1,0.2,0,0.4,0.2,0.6c0.1,0.1,0.2,0.1,0.3,0.1s0.2,0,0.3-0.1l8.6-6.2l8.6,6.2c0.2,0.1,0.4,0.1,0.6,0
			s0.2-0.3,0.2-0.6L46,543.4l8.6-6.2c0.2-0.1,0.2-0.3,0.2-0.6S54.5,536.3,54.3,536.3z M52.8,537.3l-7.6,5.5
			c-0.2,0.1-0.2,0.3-0.2,0.6l2.9,9l-7.6-5.5c-0.1-0.1-0.2-0.1-0.3-0.1s-0.2,0-0.3,0.1l-7.7,5.5l2.9-9c0.1-0.2,0-0.4-0.2-0.6
			l-7.6-5.5h9.4c0.2,0,0.4-0.1,0.5-0.3l2.9-9l2.9,9c0.1,0.2,0.3,0.3,0.5,0.3"/>
		<path class="st0" d="M214.3,536.3h-10.6l-3.3-10.1c-0.1-0.4-0.8-0.4-0.9,0l-3.3,10.1h-10.6c-0.2,0-0.4,0.1-0.5,0.3s0,0.4,0.2,0.6
			l8.6,6.2l-3.3,10.1c-0.1,0.2,0,0.4,0.2,0.6c0.1,0.1,0.2,0.1,0.3,0.1s0.2,0,0.3-0.1l8.6-6.2l8.6,6.2c0.2,0.1,0.4,0.1,0.6,0
			s0.2-0.3,0.2-0.6l-3.3-10.1l8.6-6.2c0.2-0.1,0.2-0.3,0.2-0.6S214.5,536.3,214.3,536.3z M205.1,542.8c-0.2,0.1-0.2,0.3-0.2,0.6
			l2.9,9l-7.6-5.5c-0.1-0.1-0.2-0.1-0.3-0.1s-0.2,0-0.3,0.1l-7.6,5.5l2.9-9c0.1-0.2,0-0.4-0.2-0.6l-7.6-5.5h9.4
			c0.2,0,0.4-0.1,0.5-0.3l2.9-9l2.9,9c0.1,0.2,0.3,0.3,0.5,0.3"/>
		<path class="st0" d="M294.3,536.3h-10.6l-3.3-10.1c-0.1-0.4-0.8-0.4-1,0l-3.3,10.1h-10.6c-0.2,0-0.4,0.1-0.5,0.3s0,0.4,0.2,0.6
			l8.6,6.2l-3.3,10.1c-0.1,0.2,0,0.4,0.2,0.6c0.1,0.1,0.2,0.1,0.3,0.1s0.2,0,0.3-0.1l8.6-6.2l8.6,6.2c0.2,0.1,0.4,0.1,0.6,0
			s0.2-0.3,0.2-0.6l-3.3-10.1l8.6-6.2c0.2-0.1,0.2-0.3,0.2-0.6S294.5,536.3,294.3,536.3z M285.1,542.8c-0.2,0.1-0.2,0.3-0.2,0.6
			l2.9,9l-7.6-5.5c-0.1-0.1-0.2-0.1-0.3-0.1s-0.2,0-0.3,0.1l-7.6,5.5l2.9-9c0.1-0.2,0-0.4-0.2-0.6l-7.6-5.5h9.4
			c0.2,0,0.4-0.1,0.5-0.3l2.9-9l2.9,9c0.1,0.2,0.3,0.3,0.5,0.3"/>
		<path class="st0" d="M374.3,536.3h-10.6l-3.3-10.1c-0.1-0.4-0.8-0.4-1,0l-3.3,10.1h-10.6c-0.2,0-0.4,0.1-0.5,0.3s0,0.4,0.2,0.6
			l8.6,6.2l-3.3,10.1c-0.1,0.2,0,0.4,0.2,0.6c0.2,0.1,0.4,0.1,0.6,0l8.6-6.2l8.6,6.2c0.1,0.1,0.2,0.1,0.3,0.1s0.2,0,0.3-0.1
			c0.2-0.1,0.2-0.3,0.2-0.6l-3.3-10.1l8.6-6.2c0.2-0.1,0.2-0.3,0.2-0.6C374.7,536.4,374.5,536.3,374.3,536.3z M365.1,542.8
			c-0.2,0.1-0.2,0.3-0.2,0.6l2.9,9l-7.6-5.5c-0.2-0.1-0.4-0.1-0.6,0l-7.6,5.5l2.9-9c0.1-0.2,0-0.4-0.2-0.6l-7.6-5.5h9.4
			c0.2,0,0.4-0.1,0.5-0.3l2.9-9l2.9,9c0.1,0.2,0.3,0.3,0.5,0.3"/>
		<path class="st0" d="M454.3,536.3h-10.6l-3.3-10.1c-0.1-0.4-0.8-0.4-1,0l-3.3,10.1h-10.6c-0.2,0-0.4,0.1-0.5,0.3
			c-0.1,0.2,0,0.4,0.2,0.6l8.6,6.2l-3.3,10.1c-0.1,0.2,0,0.4,0.2,0.6c0.1,0.1,0.2,0.1,0.3,0.1s0.2,0,0.3-0.1l8.6-6.2l8.6,6.2
			c0.2,0.1,0.4,0.1,0.6,0c0.2-0.1,0.2-0.3,0.2-0.6l-3.3-10.1l8.6-6.2c0.2-0.1,0.2-0.3,0.2-0.6C454.7,536.4,454.5,536.3,454.3,536.3z
			 M445.1,542.8c-0.2,0.1-0.2,0.3-0.2,0.6l2.9,9l-7.6-5.5c-0.2-0.1-0.4-0.1-0.6,0l-7.6,5.5l2.9-9c0.1-0.2,0-0.4-0.2-0.6l-7.6-5.5
			h9.4c0.2,0,0.4-0.1,0.5-0.3l2.9-9l2.9,9c0.1,0.2,0.3,0.3,0.5,0.3"/>
		<path class="st1" d="M534.3,536.3h-10.6l-3.3-10.1c-0.1-0.4-0.8-0.4-1,0l-3.3,10.1h-10.6c-0.2,0-0.4,0.1-0.5,0.3
			c-0.1,0.2,0,0.4,0.2,0.6l8.6,6.2l-3.3,10.1c-0.1,0.2,0,0.4,0.2,0.6c0.1,0.1,0.2,0.1,0.3,0.1s0.2,0,0.3-0.1l8.6-6.2l8.6,6.2
			c0.2,0.1,0.4,0.1,0.6,0c0.2-0.1,0.2-0.3,0.2-0.6l-3.3-10.1l8.6-6.2c0.2-0.1,0.2-0.3,0.2-0.6C534.7,536.4,534.5,536.3,534.3,536.3z
			 M525.1,542.8c-0.2,0.1-0.2,0.3-0.2,0.6l2.9,9l-7.6-5.5c-0.2-0.1-0.4-0.1-0.6,0l-7.6,5.5l2.9-9c0.1-0.2,0-0.4-0.2-0.6l-7.6-5.5
			h9.4c0.2,0,0.4-0.1,0.5-0.3l2.9-9l2.9,9c0.1,0.2,0.3,0.3,0.5,0.3h9.4L525.1,542.8z"/>
		<path class="st0" d="M76.3,596.3H65.7c-0.2,0-0.4,0.1-0.5,0.3s0,0.4,0.2,0.6l3.9,2.8H71l-3.8-2.7h9.4c0.2,0,0.4-0.1,0.5-0.3l2.9-9
			l2.9,9c0.1,0.2,0.3,0.3,0.5,0.3h9.4l-3.8,2.7h1.7l3.9-2.8c0.2-0.1,0.2-0.4,0.2-0.6c-0.1-0.2-0.3-0.3-0.5-0.3H83.8l-3.3-10.1"/>
		<path class="st0" d="M12.9,597.3L9.1,600h1.7l3.9-2.8c0.2-0.1,0.2-0.4,0.2-0.6c-0.1-0.2-0.3-0.3-0.5-0.3H3.8l-3.3-10.1
			c-0.1-0.2-0.3-0.3-0.5-0.3v2.3l0.1-0.2l2.9,9"/>
		<path class="st0" d="M249.2,600h1.7l3.9-2.8c0.2-0.1,0.2-0.4,0.2-0.6c-0.1-0.2-0.3-0.3-0.5-0.3h-10.6l-3.3-10.1
			c-0.1-0.4-0.8-0.4-0.9,0l-3.3,10.1h-10.6c-0.2,0-0.4,0.1-0.5,0.3s0,0.4,0.2,0.6l3.9,2.8h1.7l-3.8-2.7h9.4c0.2,0,0.4-0.1,0.5-0.3
			l2.9-9l2.9,9c0.1,0.2,0.3,0.3,0.5,0.3"/>
		<path class="st0" d="M323,596.9c0.1,0.2,0.3,0.3,0.5,0.3h9.4l-3.8,2.7h1.7l3.9-2.8c0.2-0.1,0.2-0.4,0.2-0.6
			c-0.1-0.2-0.3-0.3-0.5-0.3h-10.6l-3.3-10.1c-0.1-0.4-0.8-0.4-1,0l-3.3,10.1h-10.6c-0.2,0-0.4,0.1-0.5,0.3s0,0.4,0.2,0.6l3.9,2.8
			h1.7l-3.8-2.7h9.4c0.2,0,0.4-0.1,0.5-0.3"/>
		<path class="st0" d="M403,596.9c0.1,0.2,0.3,0.3,0.5,0.3h9.4l-3.8,2.7h1.7l3.9-2.8c0.2-0.1,0.2-0.4,0.2-0.6
			c-0.1-0.2-0.3-0.3-0.5-0.3h-10.6l-3.3-10.1c-0.1-0.4-0.8-0.4-1,0l-3.3,10.1h-10.6c-0.2,0-0.4,0.1-0.5,0.3c-0.1,0.2,0,0.4,0.2,0.6
			l3.9,2.8h1.7l-3.8-2.7h9.4c0.2,0,0.4-0.1,0.5-0.3"/>
		<path class="st0" d="M483,596.9c0.1,0.2,0.3,0.3,0.5,0.3h9.4l-3.8,2.7h1.7l3.9-2.8c0.2-0.1,0.2-0.4,0.2-0.6
			c-0.1-0.2-0.3-0.3-0.5-0.3h-10.6l-3.3-10.1c-0.1-0.4-0.8-0.4-1,0l-3.3,10.1h-10.6c-0.2,0-0.4,0.1-0.5,0.3c-0.1,0.2,0,0.4,0.2,0.6
			l3.9,2.8h1.7l-3.8-2.7h9.4c0.2,0,0.4-0.1,0.5-0.3"/>
		<path class="st0" d="M545.7,596.3c-0.2,0-0.4,0.1-0.5,0.3c-0.1,0.2,0,0.4,0.2,0.6l3.9,2.8h1.7l-3.8-2.7h9.4c0.2,0,0.4-0.1,0.5-0.3
			l2.8-8.8v-2.3c-0.2,0-0.3,0.1-0.4,0.3"/>
	</g>
</g>
</svg>
